Courier Prima Bold Italic.ufo
<glyph name="quotedbl" format="1">
  <advance width="1228"/>
  <unicode hex="0022"/>
  <outline>
    <contour>
      <point x="652" y="1209" type="line" smooth="yes"/>
      <point x="675" y="1209"/>
      <point x="692" y="1185"/>
      <point x="684" y="1159" type="qcurve" smooth="yes"/>
      <point x="526" y="679" type="line" smooth="yes"/>
      <point x="516" y="648"/>
      <point x="470" y="611"/>
      <point x="421" y="611" type="qcurve" smooth="yes"/>
      <point x="372" y="611"/>
      <point x="339" y="648"/>
      <point x="340" y="679" type="qcurve" smooth="yes"/>
      <point x="352" y="1159" type="line" smooth="yes"/>
      <point x="353" y="1185"/>
      <point x="379" y="1209"/>
      <point x="402" y="1209" type="qcurve" smooth="yes"/>
    </contour>
    <contour>
      <point x="1112" y="1209" type="line" smooth="yes"/>
      <point x="1135" y="1209"/>
      <point x="1152" y="1185"/>
      <point x="1144" y="1159" type="qcurve" smooth="yes"/>
      <point x="986" y="679" type="line" smooth="yes"/>
      <point x="976" y="648"/>
      <point x="930" y="611"/>
      <point x="881" y="611" type="qcurve" smooth="yes"/>
      <point x="832" y="611"/>
      <point x="799" y="648"/>
      <point x="800" y="679" type="qcurve" smooth="yes"/>
      <point x="812" y="1159" type="line" smooth="yes"/>
      <point x="813" y="1185"/>
      <point x="839" y="1209"/>
      <point x="862" y="1209" type="qcurve" smooth="yes"/>
    </contour>
  </outline>
</glyph>
<glyph name="dollar" format="1">
  <advance width="1228"/>
  <unicode hex="0024"/>
  <outline>
    <contour>
      <point x="376" y="181" type="line" smooth="yes"/>
      <point x="371" y="147"/>
      <point x="307" y="118"/>
      <point x="243" y="118" type="qcurve" smooth="yes"/>
      <point x="179" y="118"/>
      <point x="130" y="147"/>
      <point x="136" y="181" type="qcurve" smooth="yes"/>
      <point x="175" y="404" type="line" smooth="yes"/>
      <point x="181" y="438"/>
      <point x="233" y="467"/>
      <point x="282" y="467" type="qcurve" smooth="yes"/>
      <point x="315" y="467"/>
      <point x="352" y="453"/>
      <point x="360" y="439" type="qcurve" smooth="yes"/>
      <point x="385" y="399"/>
      <point x="459" y="349"/>
      <point x="504" y="335" type="qcurve"/>
      <point x="534" y="506" type="line"/>
      <point x="483" y="517"/>
      <point x="384" y="546"/>
      <point x="342" y="571" type="qcurve" smooth="yes"/>
      <point x="294" y="600"/>
      <point x="233" y="691"/>
      <point x="233" y="760" type="qcurve" smooth="yes"/>
      <point x="233" y="826"/>
      <point x="286" y="949"/>
      <point x="340" y="994" type="qcurve" smooth="yes"/>
      <point x="395" y="1039"/>
      <point x="547" y="1084"/>
      <point x="636" y="1086" type="qcurve"/>
      <point x="665" y="1249" type="line" smooth="yes"/>
      <point x="668" y="1266"/>
      <point x="680" y="1290"/>
      <point x="692.0" y="1297.5" type="qcurve" smooth="yes" name="inserted"/>
      <point x="704" y="1305"/>
      <point x="741" y="1312"/>
      <point x="769" y="1312" type="qcurve" smooth="yes"/>
      <point x="825" y="1312"/>
      <point x="857" y="1283"/>
      <point x="851" y="1249" type="qcurve" smooth="yes"/>
      <point x="816" y="1054" type="line"/>
      <point x="839" y="1045"/>
      <point x="881" y="1022"/>
      <point x="901" y="1008" type="qcurve"/>
      <point x="904" y="1023" type="line" smooth="yes"/>
      <point x="911" y="1057"/>
      <point x="963" y="1086"/>
      <point x="1027" y="1086" type="qcurve" smooth="yes"/>
      <point x="1091" y="1086"/>
      <point x="1140" y="1057"/>
      <point x="1134" y="1023" type="qcurve" smooth="yes"/>
      <point x="1097" y="812" type="line" smooth="yes"/>
      <point x="1091" y="778"/>
      <point x="1043" y="749"/>
      <point x="994" y="749" type="qcurve" smooth="yes"/>
      <point x="967.0" y="749.0" name="inserted"/>
      <point x="932.5" y="759.5"/>
      <point x="925" y="770" type="qcurve" smooth="yes"/>
      <point x="896" y="807"/>
      <point x="826" y="853"/>
      <point x="783" y="866" type="qcurve"/>
      <point x="756" y="712" type="line"/>
      <point x="813" y="703"/>
      <point x="922" y="675"/>
      <point x="967" y="649" type="qcurve" smooth="yes"/>
      <point x="1015" y="621"/>
      <point x="1076" y="534"/>
      <point x="1076" y="465" type="qcurve" smooth="yes"/>
      <point x="1076" y="402"/>
      <point x="1029" y="279"/>
      <point x="981" y="231" type="qcurve" smooth="yes"/>
      <point x="926.0" y="178.5" name="inserted"/>
      <point x="761.5" y="122.0"/>
      <point x="652" y="118" type="qcurve"/>
      <point x="620" y="-62" type="line" smooth="yes"/>
      <point x="614" y="-96"/>
      <point x="571" y="-125"/>
      <point x="515" y="-125" type="qcurve" smooth="yes"/>
      <point x="459" y="-125"/>
      <point x="428" y="-96"/>
      <point x="434" y="-62" type="qcurve" smooth="yes"/>
      <point x="470" y="145" type="line"/>
      <point x="444" y="155"/>
      <point x="399" y="180"/>
      <point x="378" y="194" type="qcurve"/>
    </contour>
    <contour>
      <point x="714" y="474" type="line"/>
      <point x="687" y="320" type="line"/>
      <point x="718.0" y="323.0" name="inserted"/>
      <point x="765.5" y="338.5"/>
      <point x="782" y="351" type="qcurve" smooth="yes"/>
      <point x="800" y="365"/>
      <point x="814" y="398"/>
      <point x="814" y="409" type="qcurve" smooth="yes"/>
      <point x="814" y="434"/>
      <point x="769" y="469"/>
      <point x="714" y="477" type="qcurve"/>
    </contour>
    <contour>
      <point x="600" y="884" type="line"/>
      <point x="575" y="881"/>
      <point x="537" y="866"/>
      <point x="523" y="855" type="qcurve" smooth="yes"/>
      <point x="508.0" y="843.0" name="inserted"/>
      <point x="493.0" y="815.5"/>
      <point x="493" y="800" type="qcurve" smooth="yes"/>
      <point x="493" y="775"/>
      <point x="533" y="747"/>
      <point x="575" y="739" type="qcurve"/>
    </contour>
  </outline>
</glyph>
<glyph name="percent" format="1">
  <advance width="1228"/>
  <unicode hex="0025"/>
  <outline>
    <contour>
      <point x="835" y="-22" type="qcurve" smooth="yes"/>
      <point x="784" y="-22"/>
      <point x="699" y="15"/>
      <point x="668.0" y="47.5" type="qcurve" smooth="yes" name="inserted"/>
      <point x="637" y="80"/>
      <point x="602" y="166"/>
      <point x="602" y="215" type="qcurve" smooth="yes"/>
      <point x="602" y="280"/>
      <point x="656" y="393"/>
      <point x="700.0" y="435.0" type="qcurve" smooth="yes" name="inserted"/>
      <point x="744" y="477"/>
      <point x="859" y="526"/>
      <point x="921" y="526" type="qcurve" smooth="yes"/>
      <point x="972" y="526"/>
      <point x="1057" y="489"/>
      <point x="1088.0" y="456.5" type="qcurve" smooth="yes" name="inserted"/>
      <point x="1119" y="424"/>
      <point x="1154" y="338"/>
      <point x="1154" y="289" type="qcurve" smooth="yes"/>
      <point x="1154" y="224"/>
      <point x="1100" y="110"/>
      <point x="1056.0" y="68.0" type="qcurve" smooth="yes" name="inserted"/>
      <point x="1012" y="26"/>
      <point x="896" y="-22"/>
    </contour>
    <contour>
      <point x="863" y="165" type="qcurve" smooth="yes"/>
      <point x="882" y="165"/>
      <point x="920" y="181"/>
      <point x="934.0" y="195.0" type="qcurve" smooth="yes" name="inserted"/>
      <point x="948" y="209"/>
      <point x="966" y="246"/>
      <point x="966" y="266" type="qcurve" smooth="yes"/>
      <point x="966" y="297"/>
      <point x="925" y="339"/>
      <point x="893" y="339" type="qcurve" smooth="yes"/>
      <point x="873" y="339"/>
      <point x="835" y="322"/>
      <point x="820.5" y="308.0" type="qcurve" smooth="yes" name="inserted"/>
      <point x="806" y="294"/>
      <point x="789" y="257"/>
      <point x="789" y="236" type="qcurve" smooth="yes"/>
      <point x="789" y="206"/>
      <point x="831" y="165"/>
    </contour>
    <contour>
      <point x="375" y="661" type="qcurve" smooth="yes"/>
      <point x="324" y="661"/>
      <point x="239" y="698"/>
      <point x="208.0" y="730.5" type="qcurve" smooth="yes" name="inserted"/>
      <point x="177" y="763"/>
      <point x="142" y="849"/>
      <point x="142" y="898" type="qcurve" smooth="yes"/>
      <point x="142" y="963"/>
      <point x="196" y="1076"/>
      <point x="240.0" y="1118.0" type="qcurve" smooth="yes" name="inserted"/>
      <point x="284" y="1160"/>
      <point x="399" y="1209"/>
      <point x="461" y="1209" type="qcurve" smooth="yes"/>
      <point x="512" y="1209"/>
      <point x="597" y="1172"/>
      <point x="628.0" y="1139.5" type="qcurve" smooth="yes" name="inserted"/>
      <point x="659" y="1107"/>
      <point x="694" y="1021"/>
      <point x="694" y="972" type="qcurve" smooth="yes"/>
      <point x="694" y="907"/>
      <point x="640" y="793"/>
      <point x="596.0" y="751.0" type="qcurve" smooth="yes" name="inserted"/>
      <point x="552" y="709"/>
      <point x="436" y="661"/>
    </contour>
    <contour>
      <point x="403" y="848" type="qcurve" smooth="yes"/>
      <point x="422" y="848"/>
      <point x="460" y="864"/>
      <point x="474.0" y="878.0" type="qcurve" smooth="yes" name="inserted"/>
      <point x="488" y="892"/>
      <point x="506" y="929"/>
      <point x="506" y="949" type="qcurve" smooth="yes"/>
      <point x="506" y="980"/>
      <point x="465" y="1022"/>
      <point x="433" y="1022" type="qcurve" smooth="yes"/>
      <point x="413" y="1022"/>
      <point x="375" y="1005"/>
      <point x="360.5" y="991.0" type="qcurve" smooth="yes" name="inserted"/>
      <point x="346" y="977"/>
      <point x="329" y="940"/>
      <point x="329" y="919" type="qcurve" smooth="yes"/>
      <point x="329" y="889"/>
      <point x="371" y="848"/>
    </contour>
    <contour>
      <point x="1105" y="1083" type="line" smooth="yes"/>
      <point x="1133" y="1106"/>
      <point x="1179" y="1097"/>
      <point x="1213" y="1054" type="qcurve" smooth="yes"/>
      <point x="1230" y="1032"/>
      <point x="1246" y="1000"/>
      <point x="1245.5" y="987.0" type="qcurve" smooth="yes" name="inserted"/>
      <point x="1245" y="974"/>
      <point x="1229" y="952"/>
      <point x="1215" y="940" type="qcurve" smooth="yes"/>
      <point x="191" y="106" type="line" smooth="yes"/>
      <point x="177" y="94"/>
      <point x="152" y="84"/>
      <point x="139.5" y="86.5" type="qcurve" smooth="yes" name="inserted"/>
      <point x="127" y="89"/>
      <point x="100" y="112"/>
      <point x="83" y="134" type="qcurve" smooth="yes"/>
      <point x="50" y="178"/>
      <point x="52" y="226"/>
      <point x="81" y="249" type="qcurve" smooth="yes"/>
    </contour>
  </outline>
</glyph>
<glyph name="parenleft" format="1">
  <advance width="1228"/>
  <unicode hex="0028"/>
  <outline>
    <contour>
      <point x="932" y="1315" type="qcurve" smooth="yes"/>
      <point x="949" y="1324"/>
      <point x="982" y="1318"/>
      <point x="997.0" y="1307.0" type="qcurve" smooth="yes" name="inserted"/>
      <point x="1012" y="1296"/>
      <point x="1038" y="1262"/>
      <point x="1048" y="1242" type="qcurve" smooth="yes"/>
      <point x="1058" y="1221"/>
      <point x="1070" y="1177"/>
      <point x="1070.5" y="1157.5" type="qcurve" smooth="yes" name="inserted"/>
      <point x="1071" y="1138"/>
      <point x="1059" y="1108"/>
      <point x="1046" y="1101" type="qcurve" smooth="yes"/>
      <point x="918" y="1031"/>
      <point x="715" y="868"/>
      <point x="645.0" y="770.5" type="qcurve" smooth="yes" name="inserted"/>
      <point x="575" y="673"/>
      <point x="501" y="442"/>
      <point x="501" y="306" type="qcurve" smooth="yes"/>
      <point x="501" y="142"/>
      <point x="642" y="-113"/>
      <point x="783" y="-213" type="qcurve"/>
      <point x="793" y="-221"/>
      <point x="797" y="-249"/>
      <point x="792.5" y="-266.5" type="qcurve" smooth="yes" name="inserted"/>
      <point x="788" y="-284"/>
      <point x="767" y="-322"/>
      <point x="753" y="-340" type="qcurve" smooth="yes"/>
      <point x="739" y="-357"/>
      <point x="708" y="-386"/>
      <point x="692.0" y="-394.5" type="qcurve" smooth="yes" name="inserted"/>
      <point x="676" y="-403"/>
      <point x="644" y="-406"/>
      <point x="630" y="-397" type="qcurve" smooth="yes"/>
      <point x="557" y="-351"/>
      <point x="421" y="-216"/>
      <point x="369.0" y="-128.5" type="qcurve" smooth="yes" name="inserted"/>
      <point x="317" y="-41"/>
      <point x="255" y="175"/>
      <point x="255" y="301" type="qcurve" smooth="yes"/>
      <point x="255" y="455"/>
      <point x="342" y="747"/>
      <point x="427.5" y="877.5" type="qcurve" smooth="yes" name="inserted"/>
      <point x="513" y="1008"/>
      <point x="766" y="1230"/>
    </contour>
  </outline>
</glyph>
<glyph name="comma" format="1">
  <advance width="1228"/>
  <unicode hex="002C"/>
  <outline>
    <contour>
      <point x="420" y="-253" type="line" smooth="yes"/>
      <point x="406.0" y="-273.5" name="inserted"/>
      <point x="357.0" y="-294.0"/>
      <point x="322" y="-294" type="qcurve" smooth="yes"/>
      <point x="280" y="-294"/>
      <point x="238" y="-261"/>
      <point x="248" y="-228" type="qcurve" smooth="yes"/>
      <point x="413" y="314" type="line" smooth="yes"/>
      <point x="419" y="334"/>
      <point x="451" y="354"/>
      <point x="472" y="354" type="qcurve" smooth="yes"/>
      <point x="771" y="354" type="line" smooth="yes"/>
      <point x="796" y="354"/>
      <point x="805" y="317"/>
      <point x="788" y="291" type="qcurve" smooth="yes"/>
    </contour>
  </outline>
</glyph>
<glyph name="zero" format="1">
  <advance width="1228"/>
  <unicode hex="0030"/>
  <outline>
    <contour>
      <point x="580" y="205" type="qcurve" smooth="yes"/>
      <point x="640.5" y="205.0" name="inserted"/>
      <point x="739.5" y="271.5"/>
      <point x="778" y="338" type="qcurve" smooth="yes"/>
      <point x="802" y="380"/>
      <point x="839" y="487"/>
      <point x="852.0" y="543.0" type="qcurve" smooth="yes" name="inserted"/>
      <point x="865" y="599"/>
      <point x="878" y="709"/>
      <point x="878" y="753" type="qcurve" smooth="yes"/>
      <point x="878" y="868"/>
      <point x="796" y="982"/>
      <point x="717" y="982" type="qcurve" smooth="yes"/>
      <point x="656.5" y="982.0" name="inserted"/>
      <point x="557.5" y="915.5"/>
      <point x="519" y="849" type="qcurve" smooth="yes"/>
      <point x="495" y="807"/>
      <point x="458" y="700"/>
      <point x="445.0" y="644.0" type="qcurve" smooth="yes" name="inserted"/>
      <point x="432" y="588"/>
      <point x="419" y="478"/>
      <point x="419" y="434" type="qcurve" smooth="yes"/>
      <point x="419" y="319"/>
      <point x="501" y="205"/>
    </contour>
    <contour>
      <point x="555" y="-22" type="qcurve" smooth="yes"/>
      <point x="459" y="-22"/>
      <point x="310" y="46"/>
      <point x="259.0" y="108.0" type="qcurve" smooth="yes" name="inserted"/>
      <point x="208" y="170"/>
      <point x="155" y="343"/>
      <point x="155" y="447" type="qcurve" smooth="yes"/>
      <point x="155" y="512"/>
      <point x="176" y="652"/>
      <point x="196.0" y="720.5" type="qcurve" smooth="yes" name="inserted"/>
      <point x="216" y="789"/>
      <point x="274" y="918"/>
      <point x="312" y="972" type="qcurve" smooth="yes"/>
      <point x="390" y="1084"/>
      <point x="606" y="1209"/>
      <point x="742" y="1209" type="qcurve" smooth="yes"/>
      <point x="838" y="1209"/>
      <point x="987" y="1141"/>
      <point x="1038.0" y="1079.0" type="qcurve" smooth="yes" name="inserted"/>
      <point x="1089" y="1017"/>
      <point x="1142" y="844"/>
      <point x="1142" y="740" type="qcurve" smooth="yes"/>
      <point x="1142" y="675"/>
      <point x="1121" y="535"/>
      <point x="1101.0" y="466.5" type="qcurve" smooth="yes" name="inserted"/>
      <point x="1081" y="398"/>
      <point x="1023" y="269"/>
      <point x="985" y="215" type="qcurve" smooth="yes"/>
      <point x="907" y="103"/>
      <point x="691" y="-22"/>
    </contour>
    <contour>
      <point x="558" y="920" type="move"/>
      <point x="810" y="374" type="line"/>
      <point x="740" y="276" type="line"/>
      <point x="491" y="807" type="line"/>
    </contour>
  </outline>
</glyph>
<glyph name="one" format="1">
  <advance width="1228"/>
  <unicode hex="0031"/>
  <outline>
    <contour>
      <point x="611" y="923" type="line"/>
      <point x="413" y="856" type="line" smooth="yes"/>
      <point x="396" y="850"/>
      <point x="370" y="852"/>
      <point x="359.5" y="861.0" type="qcurve" smooth="yes" name="inserted"/>
      <point x="349" y="870"/>
      <point x="332" y="906"/>
      <point x="324" y="935" type="qcurve" smooth="yes"/>
      <point x="308" y="994"/>
      <point x="331" y="1043"/>
      <point x="364" y="1054" type="qcurve" smooth="yes"/>
      <point x="805" y="1205" type="line" smooth="yes"/>
      <point x="854" y="1222"/>
      <point x="907" y="1181"/>
      <point x="897" y="1128" type="qcurve" smooth="yes"/>
      <point x="735" y="205" type="line"/>
      <point x="991" y="205" type="line" smooth="yes"/>
      <point x="1008" y="205"/>
      <point x="1030" y="197"/>
      <point x="1035.5" y="185.5" type="qcurve" smooth="yes" name="inserted"/>
      <point x="1041" y="174"/>
      <point x="1041" y="134"/>
      <point x="1035" y="102" type="qcurve" smooth="yes"/>
      <point x="1029" y="70"/>
      <point x="1016" y="30"/>
      <point x="1006.5" y="19.0" type="qcurve" smooth="yes" name="inserted"/>
      <point x="997" y="8"/>
      <point x="972" y="0"/>
      <point x="955" y="0" type="qcurve" smooth="yes"/>
      <point x="223" y="0" type="line" smooth="yes"/>
      <point x="206" y="0"/>
      <point x="183" y="8"/>
      <point x="177.5" y="19.0" type="qcurve" smooth="yes" name="inserted"/>
      <point x="172" y="30"/>
      <point x="171" y="70"/>
      <point x="177" y="102" type="qcurve" smooth="yes"/>
      <point x="183" y="134"/>
      <point x="197" y="174"/>
      <point x="206.5" y="185.5" type="qcurve" smooth="yes" name="inserted"/>
      <point x="216" y="197"/>
      <point x="242" y="205"/>
      <point x="259" y="205" type="qcurve" smooth="yes"/>
      <point x="485" y="205" type="line"/>
    </contour>
  </outline>
</glyph>
<glyph name="two" format="1">
  <advance width="1228"/>
  <unicode hex="0032"/>
  <outline>
    <contour>
      <point x="797" y="215" type="line"/>
      <point x="814" y="307" type="line" smooth="yes"/>
      <point x="817" y="324"/>
      <point x="831" y="348"/>
      <point x="844.5" y="355.5" type="qcurve" smooth="yes" name="inserted"/>
      <point x="858" y="363"/>
      <point x="901" y="370"/>
      <point x="933" y="370" type="qcurve" smooth="yes"/>
      <point x="997" y="370"/>
      <point x="1050" y="341"/>
      <point x="1044" y="307" type="qcurve" smooth="yes"/>
      <point x="1001" y="65" type="line" smooth="yes"/>
      <point x="995" y="30"/>
      <point x="960" y="0"/>
      <point x="925" y="0" type="qcurve" smooth="yes"/>
      <point x="151" y="0" type="line" smooth="yes"/>
      <point x="134" y="0"/>
      <point x="112" y="8"/>
      <point x="106.0" y="19.5" type="qcurve" smooth="yes" name="inserted"/>
      <point x="100" y="31"/>
      <point x="100" y="71"/>
      <point x="106" y="103" type="qcurve" smooth="yes"/>
      <point x="113" y="144"/>
      <point x="132" y="193"/>
      <point x="148" y="206" type="qcurve" smooth="yes"/>
      <point x="650" y="619" type="line" smooth="yes"/>
      <point x="717" y="674"/>
      <point x="793" y="750"/>
      <point x="812" y="784" type="qcurve" smooth="yes"/>
      <point x="823" y="804"/>
      <point x="836" y="852"/>
      <point x="836" y="878" type="qcurve" smooth="yes"/>
      <point x="836" y="931"/>
      <point x="770" y="992"/>
      <point x="705" y="992" type="qcurve" smooth="yes"/>
      <point x="658" y="992"/>
      <point x="567" y="969"/>
      <point x="525" y="950" type="qcurve"/>
      <point x="500" y="810" type="line" smooth="yes"/>
      <point x="497" y="793"/>
      <point x="483" y="769"/>
      <point x="469.5" y="761.5" type="qcurve" smooth="yes" name="inserted"/>
      <point x="456" y="754"/>
      <point x="413" y="747"/>
      <point x="381" y="747" type="qcurve" smooth="yes"/>
      <point x="317" y="747"/>
      <point x="264" y="776"/>
      <point x="270" y="810" type="qcurve" smooth="yes"/>
      <point x="314" y="1057" type="line" smooth="yes"/>
      <point x="317.5" y="1077.5" name="inserted"/>
      <point x="344.5" y="1109.5"/>
      <point x="368" y="1121" type="qcurve" smooth="yes"/>
      <point x="468" y="1171"/>
      <point x="648" y="1209"/>
      <point x="733" y="1209" type="qcurve" smooth="yes"/>
      <point x="821" y="1209"/>
      <point x="955" y="1163"/>
      <point x="1000.5" y="1122.0" type="qcurve" smooth="yes" name="inserted"/>
      <point x="1046" y="1081"/>
      <point x="1092" y="968"/>
      <point x="1092" y="901" type="qcurve" smooth="yes"/>
      <point x="1092" y="853"/>
      <point x="1069" y="749"/>
      <point x="1044" y="702" type="qcurve" smooth="yes"/>
      <point x="1014" y="645"/>
      <point x="910" y="541"/>
      <point x="835" y="478" type="qcurve" smooth="yes"/>
      <point x="515" y="215" type="line"/>
    </contour>
  </outline>
</glyph>
<glyph name="four" format="1">
  <advance width="1228"/>
  <unicode hex="0034"/>
  <outline>
    <contour>
      <point x="608" y="370" type="line"/>
      <point x="178" y="370" type="line" smooth="yes"/>
      <point x="161" y="370"/>
      <point x="139" y="378"/>
      <point x="133.0" y="389.0" type="qcurve" smooth="yes" name="inserted"/>
      <point x="127" y="400"/>
      <point x="127" y="440"/>
      <point x="133" y="472" type="qcurve" smooth="yes"/>
      <point x="139" y="508"/>
      <point x="158" y="560"/>
      <point x="169" y="571" type="qcurve" smooth="yes"/>
      <point x="742" y="1150" type="line" smooth="yes"/>
      <point x="773" y="1181"/>
      <point x="848" y="1209"/>
      <point x="901" y="1209" type="qcurve" smooth="yes"/>
      <point x="932" y="1209"/>
      <point x="970" y="1196"/>
      <point x="979.5" y="1184.0" type="qcurve" smooth="yes" name="inserted"/>
      <point x="989" y="1172"/>
      <point x="993" y="1139"/>
      <point x="990" y="1119" type="qcurve" smooth="yes"/>
      <point x="894" y="575" type="line"/>
      <point x="1066" y="575" type="line" smooth="yes"/>
      <point x="1083" y="575"/>
      <point x="1105" y="567"/>
      <point x="1111.0" y="555.5" type="qcurve" smooth="yes" name="inserted"/>
      <point x="1117" y="544"/>
      <point x="1117" y="504"/>
      <point x="1111" y="472" type="qcurve" smooth="yes"/>
      <point x="1105" y="440"/>
      <point x="1091" y="400"/>
      <point x="1081.5" y="389.0" type="qcurve" smooth="yes" name="inserted"/>
      <point x="1072" y="378"/>
      <point x="1047" y="370"/>
      <point x="1030" y="370" type="qcurve" smooth="yes"/>
      <point x="858" y="370" type="line"/>
      <point x="829" y="205" type="line"/>
      <point x="971" y="205" type="line" smooth="yes"/>
      <point x="988" y="205"/>
      <point x="1010" y="197"/>
      <point x="1015.5" y="185.5" type="qcurve" smooth="yes" name="inserted"/>
      <point x="1021" y="174"/>
      <point x="1021" y="134"/>
      <point x="1015" y="102" type="qcurve" smooth="yes"/>
      <point x="1009" y="70"/>
      <point x="996" y="30"/>
      <point x="986.5" y="19.0" type="qcurve" smooth="yes" name="inserted"/>
      <point x="977" y="8"/>
      <point x="952" y="0"/>
      <point x="935" y="0" type="qcurve" smooth="yes"/>
      <point x="373" y="0" type="line" smooth="yes"/>
      <point x="356" y="0"/>
      <point x="333" y="8"/>
      <point x="327.5" y="19.0" type="qcurve" smooth="yes" name="inserted"/>
      <point x="322" y="30"/>
      <point x="321" y="70"/>
      <point x="327" y="102" type="qcurve" smooth="yes"/>
      <point x="333" y="134"/>
      <point x="347" y="174"/>
      <point x="356.5" y="185.5" type="qcurve" smooth="yes" name="inserted"/>
      <point x="366" y="197"/>
      <point x="392" y="205"/>
      <point x="409" y="205" type="qcurve" smooth="yes"/>
      <point x="579" y="205" type="line"/>
    </contour>
    <contour>
      <point x="653" y="575" type="line"/>
      <point x="720" y="867" type="line"/>
      <point x="434" y="575" type="line"/>
    </contour>
  </outline>
</glyph>
<glyph name="six" format="1">
  <advance width="1228"/>
  <unicode hex="0036"/>
  <outline>
    <contour>
      <point x="566" y="-22" type="qcurve" smooth="yes"/>
      <point x="432" y="-22"/>
      <point x="256" y="92"/>
      <point x="211" y="186" type="qcurve" smooth="yes"/>
      <point x="191" y="226"/>
      <point x="171" y="335"/>
      <point x="171" y="398" type="qcurve" smooth="yes"/>
      <point x="171" y="463"/>
      <point x="196" y="618"/>
      <point x="225.0" y="697.5" type="qcurve" smooth="yes" name="inserted"/>
      <point x="254" y="777"/>
      <point x="347" y="930"/>
      <point x="416" y="993" type="qcurve" smooth="yes"/>
      <point x="527" y="1095"/>
      <point x="849" y="1204"/>
      <point x="1069" y="1209" type="qcurve" smooth="yes"/>
      <point x="1096" y="1210"/>
      <point x="1119" y="1159"/>
      <point x="1121" y="1102" type="qcurve" smooth="yes"/>
      <point x="1123" y="1033"/>
      <point x="1091" y="968"/>
      <point x="1068" y="967" type="qcurve" smooth="yes"/>
      <point x="930" y="964"/>
      <point x="727" y="920"/>
      <point x="655.0" y="879.0" type="qcurve" smooth="yes" name="inserted"/>
      <point x="583" y="838"/>
      <point x="489" y="716"/>
      <point x="461" y="634" type="qcurve"/>
      <point x="522" y="686"/>
      <point x="658" y="741"/>
      <point x="745" y="741" type="qcurve" smooth="yes"/>
      <point x="820" y="741"/>
      <point x="941" y="693"/>
      <point x="984.5" y="650.0" type="qcurve" smooth="yes" name="inserted"/>
      <point x="1028" y="607"/>
      <point x="1075" y="489"/>
      <point x="1075" y="420" type="qcurve" smooth="yes"/>
      <point x="1075" y="334"/>
      <point x="1008" y="174"/>
      <point x="943.0" y="112.5" type="qcurve" smooth="yes" name="inserted"/>
      <point x="878" y="51"/>
      <point x="688" y="-22"/>
    </contour>
    <contour>
      <point x="595" y="201" type="qcurve" smooth="yes"/>
      <point x="648" y="201"/>
      <point x="731" y="234"/>
      <point x="759.5" y="261.5" type="qcurve" smooth="yes" name="inserted"/>
      <point x="788" y="289"/>
      <point x="817" y="361"/>
      <point x="817" y="400" type="qcurve" smooth="yes"/>
      <point x="817" y="462"/>
      <point x="735" y="529"/>
      <point x="660" y="529" type="qcurve" smooth="yes"/>
      <point x="607" y="529"/>
      <point x="522" y="498"/>
      <point x="492.5" y="472.0" type="qcurve" smooth="yes" name="inserted"/>
      <point x="463" y="446"/>
      <point x="432" y="377"/>
      <point x="432" y="340" type="qcurve" smooth="yes"/>
      <point x="432" y="311"/>
      <point x="453" y="260"/>
      <point x="473.5" y="241.5" type="qcurve" smooth="yes" name="inserted"/>
      <point x="494" y="223"/>
      <point x="555" y="201"/>
    </contour>
  </outline>
</glyph>
<glyph name="less" format="1">
  <advance width="1228"/>
  <unicode hex="003C"/>
  <outline>
    <contour>
      <point x="1012" y="288" type="line" smooth="yes"/>
      <point x="1041" y="272"/>
      <point x="1046" y="214"/>
      <point x="1011" y="154" type="qcurve" smooth="yes"/>
      <point x="976" y="94"/>
      <point x="924" y="68"/>
      <point x="896" y="84" type="qcurve" smooth="yes"/>
      <point x="182" y="489" type="line" smooth="yes"/>
      <point x="160" y="501"/>
      <point x="144" y="540"/>
      <point x="152" y="583" type="qcurve" smooth="yes"/>
      <point x="160" y="626"/>
      <point x="189" y="664"/>
      <point x="215" y="677" type="qcurve" smooth="yes"/>
      <point x="1060" y="1076" type="line" smooth="yes"/>
      <point x="1076" y="1084"/>
      <point x="1104" y="1087"/>
      <point x="1116.5" y="1079.5" type="qcurve" smooth="yes" name="inserted"/>
      <point x="1129" y="1072"/>
      <point x="1152" y="1037"/>
      <point x="1164" y="1007" type="qcurve" smooth="yes"/>
      <point x="1188" y="947"/>
      <point x="1173" y="886"/>
      <point x="1139" y="870" type="qcurve" smooth="yes"/>
      <point x="491" y="573" type="line"/>
    </contour>
  </outline>
</glyph>
<glyph name="A" format="1">
  <advance width="1228"/>
  <unicode hex="0041"/>
  <outline>
    <contour>
      <point x="489" y="982" type="line"/>
      <point x="326" y="982" type="line" smooth="yes"/>
      <point x="309" y="982"/>
      <point x="287" y="990"/>
      <point x="281.0" y="1001.5" type="qcurve" smooth="yes" name="inserted"/>
      <point x="275" y="1013"/>
      <point x="275" y="1053"/>
      <point x="281" y="1085" type="qcurve" smooth="yes"/>
      <point x="287" y="1117"/>
      <point x="301" y="1157"/>
      <point x="310.5" y="1168.0" type="qcurve" smooth="yes" name="inserted"/>
      <point x="320" y="1179"/>
      <point x="345" y="1187"/>
      <point x="362" y="1187" type="qcurve" smooth="yes"/>
      <point x="832" y="1187" type="line" smooth="yes"/>
      <point x="872" y="1187"/>
      <point x="916" y="1157"/>
      <point x="921" y="1122" type="qcurve" smooth="yes"/>
      <point x="1050" y="205" type="line"/>
      <point x="1141" y="205" type="line" smooth="yes"/>
      <point x="1158" y="205"/>
      <point x="1180" y="197"/>
      <point x="1186.0" y="186.0" type="qcurve" smooth="yes" name="inserted"/>
      <point x="1192" y="175"/>
      <point x="1192" y="135"/>
      <point x="1186" y="103" type="qcurve" smooth="yes"/>
      <point x="1180" y="71"/>
      <point x="1166" y="31"/>
      <point x="1156.5" y="19.5" type="qcurve" smooth="yes" name="inserted"/>
      <point x="1147" y="8"/>
      <point x="1122" y="0"/>
      <point x="1105" y="0" type="qcurve" smooth="yes"/>
      <point x="681" y="0" type="line" smooth="yes"/>
      <point x="664" y="0"/>
      <point x="642" y="8"/>
      <point x="636.0" y="19.5" type="qcurve" smooth="yes" name="inserted"/>
      <point x="630" y="31"/>
      <point x="630" y="71"/>
      <point x="636" y="103" type="qcurve" smooth="yes"/>
      <point x="642" y="135"/>
      <point x="656" y="175"/>
      <point x="665.5" y="186.0" type="qcurve" smooth="yes" name="inserted"/>
      <point x="675" y="197"/>
      <point x="700" y="205"/>
      <point x="717" y="205" type="qcurve" smooth="yes"/>
      <point x="807" y="205" type="line"/>
      <point x="787" y="350" type="line"/>
      <point x="423" y="350" type="line"/>
      <point x="353" y="205" type="line"/>
      <point x="423" y="205" type="line" smooth="yes"/>
      <point x="440" y="205"/>
      <point x="462" y="197"/>
      <point x="468.0" y="186.0" type="qcurve" smooth="yes" name="inserted"/>
      <point x="474" y="175"/>
      <point x="474" y="135"/>
      <point x="468" y="103" type="qcurve" smooth="yes"/>
      <point x="462" y="71"/>
      <point x="448" y="31"/>
      <point x="438.5" y="19.5" type="qcurve" smooth="yes" name="inserted"/>
      <point x="429" y="8"/>
      <point x="404" y="0"/>
      <point x="387" y="0" type="qcurve" smooth="yes"/>
      <point x="-17" y="0" type="line" smooth="yes"/>
      <point x="-34" y="0"/>
      <point x="-56" y="8"/>
      <point x="-61.5" y="19.5" type="qcurve" smooth="yes" name="inserted"/>
      <point x="-67" y="31"/>
      <point x="-67" y="71"/>
      <point x="-62" y="103" type="qcurve" smooth="yes"/>
      <point x="-56" y="135"/>
      <point x="-42" y="175"/>
      <point x="-32.5" y="186.0" type="qcurve" smooth="yes" name="inserted"/>
      <point x="-23" y="197"/>
      <point x="2" y="205"/>
      <point x="19" y="205" type="qcurve" smooth="yes"/>
      <point x="99" y="205" type="line"/>
    </contour>
    <contour>
      <point x="766" y="555" type="line"/>
      <point x="722" y="982" type="line"/>
      <point x="716" y="982" type="line"/>
      <point x="517" y="555" type="line"/>
    </contour>
  </outline>
</glyph>
<glyph name="B" format="1">
  <advance width="1228"/>
  <unicode hex="0042"/>
  <outline>
    <contour>
      <point x="343" y="982" type="line"/>
      <point x="236" y="982" type="line" smooth="yes"/>
      <point x="219" y="982"/>
      <point x="197" y="990"/>
      <point x="191.0" y="1001.0" type="qcurve" smooth="yes" name="inserted"/>
      <point x="185" y="1012"/>
      <point x="185" y="1052"/>
      <point x="191" y="1084" type="qcurve" smooth="yes"/>
      <point x="197" y="1116"/>
      <point x="211" y="1156"/>
      <point x="220.5" y="1167.5" type="qcurve" smooth="yes" name="inserted"/>
      <point x="230" y="1179"/>
      <point x="255" y="1187"/>
      <point x="272" y="1187" type="qcurve" smooth="yes"/>
      <point x="773" y="1187" type="line" smooth="yes"/>
      <point x="869" y="1187"/>
      <point x="1010" y="1147"/>
      <point x="1056.5" y="1110.5" type="qcurve" smooth="yes" name="inserted"/>
      <point x="1103" y="1074"/>
      <point x="1149" y="973"/>
      <point x="1149" y="913" type="qcurve" smooth="yes"/>
      <point x="1149" y="810"/>
      <point x="1048" y="667"/>
      <point x="950" y="625" type="qcurve"/>
      <point x="1037" y="600"/>
      <point x="1132" y="485"/>
      <point x="1132" y="394" type="qcurve" smooth="yes"/>
      <point x="1132" y="358"/>
      <point x="1118" y="284"/>
      <point x="1104.5" y="248.0" type="qcurve" smooth="yes" name="inserted"/>
      <point x="1091" y="212"/>
      <point x="1049" y="146"/>
      <point x="1021" y="119" type="qcurve" smooth="yes"/>
      <point x="958" y="58"/>
      <point x="766" y="0"/>
      <point x="640" y="0" type="qcurve" smooth="yes"/>
      <point x="63" y="0" type="line" smooth="yes"/>
      <point x="46" y="0"/>
      <point x="23" y="8"/>
      <point x="17.5" y="19.0" type="qcurve" smooth="yes" name="inserted"/>
      <point x="12" y="30"/>
      <point x="11" y="70"/>
      <point x="17" y="102" type="qcurve" smooth="yes"/>
      <point x="23" y="134"/>
      <point x="37" y="174"/>
      <point x="46.5" y="185.5" type="qcurve" smooth="yes" name="inserted"/>
      <point x="56" y="197"/>
      <point x="82" y="205"/>
      <point x="99" y="205" type="qcurve" smooth="yes"/>
      <point x="206" y="205" type="line"/>
    </contour>
    <contour>
      <point x="650" y="215" type="line" smooth="yes"/>
      <point x="710.5" y="215.0" name="inserted"/>
      <point x="797.5" y="241.0"/>
      <point x="824" y="267" type="qcurve" smooth="yes"/>
      <point x="847" y="289"/>
      <point x="871" y="351"/>
      <point x="871" y="386" type="qcurve" smooth="yes"/>
      <point x="871.0" y="442.5" name="inserted"/>
      <point x="785.0" y="499.0"/>
      <point x="699" y="499" type="qcurve" smooth="yes"/>
      <point x="507" y="499" type="line"/>
      <point x="458" y="215" type="line"/>
    </contour>
    <contour>
      <point x="688" y="714" type="line" smooth="yes"/>
      <point x="746.0" y="714.0" name="inserted"/>
      <point x="828.5" y="740.5"/>
      <point x="853" y="767" type="qcurve" smooth="yes"/>
      <point x="871" y="787"/>
      <point x="891" y="845"/>
      <point x="891" y="875" type="qcurve" smooth="yes"/>
      <point x="891" y="926"/>
      <point x="814" y="972"/>
      <point x="733" y="972" type="qcurve" smooth="yes"/>
      <point x="591" y="972" type="line"/>
      <point x="546" y="714" type="line"/>
    </contour>
  </outline>
</glyph>
<glyph name="D" format="1">
  <advance width="1228"/>
  <unicode hex="0044"/>
  <outline>
    <contour>
      <point x="323" y="982" type="line"/>
      <point x="226" y="982" type="line" smooth="yes"/>
      <point x="209" y="982"/>
      <point x="187" y="990"/>
      <point x="181.0" y="1001.0" type="qcurve" smooth="yes" name="inserted"/>
      <point x="175" y="1012"/>
      <point x="175" y="1052"/>
      <point x="181" y="1084" type="qcurve" smooth="yes"/>
      <point x="187" y="1116"/>
      <point x="201" y="1156"/>
      <point x="210.5" y="1167.5" type="qcurve" smooth="yes" name="inserted"/>
      <point x="220" y="1179"/>
      <point x="245" y="1187"/>
      <point x="262" y="1187" type="qcurve" smooth="yes"/>
      <point x="713" y="1187" type="line" smooth="yes"/>
      <point x="827" y="1187"/>
      <point x="1007" y="1123"/>
      <point x="1069.5" y="1062.5" type="qcurve" smooth="yes" name="inserted"/>
      <point x="1132" y="1002"/>
      <point x="1198" y="828"/>
      <point x="1198" y="718" type="qcurve" smooth="yes"/>
      <point x="1198" y="658"/>
      <point x="1177" y="521"/>
      <point x="1156.0" y="452.5" type="qcurve" smooth="yes" name="inserted"/>
      <point x="1135" y="384"/>
      <point x="1071" y="255"/>
      <point x="1027" y="203" type="qcurve" smooth="yes"/>
      <point x="942" y="101"/>
      <point x="701" y="0"/>
      <point x="544" y="0" type="qcurve" smooth="yes"/>
      <point x="53" y="0" type="line" smooth="yes"/>
      <point x="36" y="0"/>
      <point x="13" y="8"/>
      <point x="7.5" y="19.0" type="qcurve" smooth="yes" name="inserted"/>
      <point x="2" y="30"/>
      <point x="1" y="70"/>
      <point x="7" y="102" type="qcurve" smooth="yes"/>
      <point x="13" y="134"/>
      <point x="27" y="174"/>
      <point x="36.5" y="185.5" type="qcurve" smooth="yes" name="inserted"/>
      <point x="46" y="197"/>
      <point x="72" y="205"/>
      <point x="89" y="205" type="qcurve" smooth="yes"/>
      <point x="186" y="205" type="line"/>
    </contour>
    <contour>
      <point x="542" y="215" type="line" smooth="yes"/>
      <point x="628.0" y="215.0" name="inserted"/>
      <point x="764.0" y="275.0"/>
      <point x="814" y="335" type="qcurve" smooth="yes"/>
      <point x="845" y="372"/>
      <point x="889" y="465"/>
      <point x="903.5" y="515.0" type="qcurve" smooth="yes" name="inserted"/>
      <point x="918" y="565"/>
      <point x="932" y="667"/>
      <point x="932" y="712" type="qcurve" smooth="yes"/>
      <point x="932" y="841"/>
      <point x="804" y="972"/>
      <point x="675" y="972" type="qcurve" smooth="yes"/>
      <point x="571" y="972" type="line"/>
      <point x="438" y="215" type="line"/>
    </contour>
  </outline>
</glyph>
<glyph name="K" format="1">
  <advance width="1228"/>
  <unicode hex="004B"/>
  <outline>
    <contour>
      <point x="323" y="982" type="line"/>
      <point x="216" y="982" type="line" smooth="yes"/>
      <point x="199" y="982"/>
      <point x="177" y="990"/>
      <point x="171.0" y="1001.0" type="qcurve" smooth="yes" name="inserted"/>
      <point x="165" y="1012"/>
      <point x="165" y="1052"/>
      <point x="171" y="1084" type="qcurve" smooth="yes"/>
      <point x="177" y="1116"/>
      <point x="191" y="1156"/>
      <point x="200.5" y="1167.5" type="qcurve" smooth="yes" name="inserted"/>
      <point x="210" y="1179"/>
      <point x="235" y="1187"/>
      <point x="252" y="1187" type="qcurve" smooth="yes"/>
      <point x="656" y="1187" type="line" smooth="yes"/>
      <point x="673" y="1187"/>
      <point x="695" y="1179"/>
      <point x="701.0" y="1167.5" type="qcurve" smooth="yes" name="inserted"/>
      <point x="707" y="1156"/>
      <point x="707" y="1116"/>
      <point x="701" y="1084" type="qcurve" smooth="yes"/>
      <point x="695" y="1052"/>
      <point x="681" y="1012"/>
      <point x="671.5" y="1001.0" type="qcurve" smooth="yes" name="inserted"/>
      <point x="662" y="990"/>
      <point x="637" y="982"/>
      <point x="620" y="982" type="qcurve" smooth="yes"/>
      <point x="573" y="982" type="line"/>
      <point x="518" y="672" type="line"/>
      <point x="887" y="982" type="line"/>
      <point x="844" y="982" type="line" smooth="yes"/>
      <point x="827" y="982"/>
      <point x="805" y="990"/>
      <point x="799.0" y="1001.0" type="qcurve" smooth="yes" name="inserted"/>
      <point x="793" y="1012"/>
      <point x="793" y="1052"/>
      <point x="799" y="1084" type="qcurve" smooth="yes"/>
      <point x="805" y="1116"/>
      <point x="819" y="1156"/>
      <point x="828.5" y="1167.5" type="qcurve" smooth="yes" name="inserted"/>
      <point x="838" y="1179"/>
      <point x="863" y="1187"/>
      <point x="880" y="1187" type="qcurve" smooth="yes"/>
      <point x="1269" y="1187" type="line" smooth="yes"/>
      <point x="1286" y="1187"/>
      <point x="1308" y="1179"/>
      <point x="1314.0" y="1167.5" type="qcurve" smooth="yes" name="inserted"/>
      <point x="1320" y="1156"/>
      <point x="1320" y="1116"/>
      <point x="1314" y="1084" type="qcurve" smooth="yes"/>
      <point x="1308" y="1052"/>
      <point x="1294" y="1012"/>
      <point x="1284.5" y="1001.0" type="qcurve" smooth="yes" name="inserted"/>
      <point x="1275" y="990"/>
      <point x="1250" y="982"/>
      <point x="1233" y="982" type="qcurve" smooth="yes"/>
      <point x="1200" y="982" type="line"/>
      <point x="790" y="641" type="line"/>
      <point x="846" y="638"/>
      <point x="913" y="582"/>
      <point x="938" y="535" type="qcurve" smooth="yes"/>
      <point x="954" y="504"/>
      <point x="978" y="438"/>
      <point x="988.0" y="405.0" type="qcurve" smooth="yes" name="inserted"/>
      <point x="998" y="372"/>
      <point x="1017" y="309"/>
      <point x="1028" y="282" type="qcurve" smooth="yes"/>
      <point x="1042" y="247"/>
      <point x="1084" y="205"/>
      <point x="1116" y="205" type="qcurve" smooth="yes"/>
      <point x="1131" y="205" type="line" smooth="yes"/>
      <point x="1148" y="205"/>
      <point x="1170" y="197"/>
      <point x="1175.5" y="185.5" type="qcurve" smooth="yes" name="inserted"/>
      <point x="1181" y="174"/>
      <point x="1181" y="134"/>
      <point x="1175" y="102" type="qcurve" smooth="yes"/>
      <point x="1169" y="70"/>
      <point x="1156" y="30"/>
      <point x="1146.5" y="19.0" type="qcurve" smooth="yes" name="inserted"/>
      <point x="1137" y="8"/>
      <point x="1112" y="0"/>
      <point x="1095" y="0" type="qcurve" smooth="yes"/>
      <point x="966" y="0" type="line" smooth="yes"/>
      <point x="933" y="0"/>
      <point x="882" y="23"/>
      <point x="862.5" y="42.5" type="qcurve" smooth="yes" name="inserted"/>
      <point x="843" y="62"/>
      <point x="815" y="113"/>
      <point x="805" y="142" type="qcurve" smooth="yes"/>
      <point x="794" y="172"/>
      <point x="776" y="236"/>
      <point x="767.0" y="267.5" type="qcurve" smooth="yes" name="inserted"/>
      <point x="758" y="299"/>
      <point x="739" y="358"/>
      <point x="728" y="382" type="qcurve" smooth="yes"/>
      <point x="709" y="420"/>
      <point x="656" y="465"/>
      <point x="621" y="465" type="qcurve" smooth="yes"/>
      <point x="600" y="465"/>
      <point x="557" y="449"/>
      <point x="536" y="431" type="qcurve" smooth="yes"/>
      <point x="465" y="371" type="line"/>
      <point x="436" y="205" type="line"/>
      <point x="551" y="205" type="line" smooth="yes"/>
      <point x="568" y="205"/>
      <point x="590" y="197"/>
      <point x="595.5" y="185.5" type="qcurve" smooth="yes" name="inserted"/>
      <point x="601" y="174"/>
      <point x="601" y="134"/>
      <point x="595" y="102" type="qcurve" smooth="yes"/>
      <point x="589" y="70"/>
      <point x="576" y="30"/>
      <point x="566.5" y="19.0" type="qcurve" smooth="yes" name="inserted"/>
      <point x="557" y="8"/>
      <point x="532" y="0"/>
      <point x="515" y="0" type="qcurve" smooth="yes"/>
      <point x="43" y="0" type="line" smooth="yes"/>
      <point x="26" y="0"/>
      <point x="3" y="8"/>
      <point x="-2.5" y="19.0" type="qcurve" smooth="yes" name="inserted"/>
      <point x="-8" y="30"/>
      <point x="-9" y="70"/>
      <point x="-3" y="102" type="qcurve" smooth="yes"/>
      <point x="3" y="134"/>
      <point x="17" y="174"/>
      <point x="26.5" y="185.5" type="qcurve" smooth="yes" name="inserted"/>
      <point x="36" y="197"/>
      <point x="62" y="205"/>
      <point x="79" y="205" type="qcurve" smooth="yes"/>
      <point x="186" y="205" type="line"/>
    </contour>
  </outline>
</glyph>
<glyph name="M" format="1">
  <advance width="1228"/>
  <unicode hex="004D"/>
  <outline>
    <contour>
      <point x="250" y="982" type="line"/>
      <point x="196" y="982" type="line" smooth="yes"/>
      <point x="179" y="982"/>
      <point x="157" y="990"/>
      <point x="151.0" y="1001.0" type="qcurve" smooth="yes" name="inserted"/>
      <point x="145" y="1012"/>
      <point x="145" y="1052"/>
      <point x="151" y="1084" type="qcurve" smooth="yes"/>
      <point x="157" y="1116"/>
      <point x="171" y="1156"/>
      <point x="180.5" y="1167.5" type="qcurve" smooth="yes" name="inserted"/>
      <point x="190" y="1179"/>
      <point x="215" y="1187"/>
      <point x="232" y="1187" type="qcurve" smooth="yes"/>
      <point x="506" y="1187" type="line" smooth="yes"/>
      <point x="526" y="1187"/>
      <point x="550" y="1174"/>
      <point x="554" y="1156" type="qcurve" smooth="yes"/>
      <point x="651" y="665" type="line"/>
      <point x="919" y="1156" type="line" smooth="yes"/>
      <point x="929" y="1174"/>
      <point x="959" y="1187"/>
      <point x="979" y="1187" type="qcurve" smooth="yes"/>
      <point x="1274" y="1187" type="line" smooth="yes"/>
      <point x="1291" y="1187"/>
      <point x="1313" y="1179"/>
      <point x="1319.0" y="1167.5" type="qcurve" smooth="yes" name="inserted"/>
      <point x="1325" y="1156"/>
      <point x="1325" y="1116"/>
      <point x="1319" y="1084" type="qcurve" smooth="yes"/>
      <point x="1313" y="1052"/>
      <point x="1299" y="1012"/>
      <point x="1289.5" y="1001.0" type="qcurve" smooth="yes" name="inserted"/>
      <point x="1280" y="990"/>
      <point x="1255" y="982"/>
      <point x="1238" y="982" type="qcurve" smooth="yes"/>
      <point x="1184" y="982" type="line"/>
      <point x="1061" y="205" type="line"/>
      <point x="1121" y="205" type="line" smooth="yes"/>
      <point x="1138" y="205"/>
      <point x="1160" y="197"/>
      <point x="1165.5" y="185.5" type="qcurve" smooth="yes" name="inserted"/>
      <point x="1171" y="174"/>
      <point x="1171" y="134"/>
      <point x="1165" y="102" type="qcurve" smooth="yes"/>
      <point x="1159" y="70"/>
      <point x="1146" y="30"/>
      <point x="1136.5" y="19.0" type="qcurve" smooth="yes" name="inserted"/>
      <point x="1127" y="8"/>
      <point x="1102" y="0"/>
      <point x="1085" y="0" type="qcurve" smooth="yes"/>
      <point x="711" y="0" type="line" smooth="yes"/>
      <point x="694" y="0"/>
      <point x="671" y="8"/>
      <point x="665.5" y="19.0" type="qcurve" smooth="yes" name="inserted"/>
      <point x="660" y="30"/>
      <point x="659" y="70"/>
      <point x="665" y="102" type="qcurve" smooth="yes"/>
      <point x="671" y="134"/>
      <point x="685" y="174"/>
      <point x="694.5" y="185.5" type="qcurve" smooth="yes" name="inserted"/>
      <point x="704" y="197"/>
      <point x="730" y="205"/>
      <point x="747" y="205" type="qcurve" smooth="yes"/>
      <point x="839" y="205" type="line"/>
      <point x="937" y="797" type="line"/>
      <point x="714" y="389" type="line" smooth="yes"/>
      <point x="694" y="354"/>
      <point x="645" y="325"/>
      <point x="602" y="325" type="qcurve" smooth="yes"/>
      <point x="559" y="325"/>
      <point x="517" y="354"/>
      <point x="510" y="389" type="qcurve" smooth="yes"/>
      <point x="430" y="794" type="line"/>
      <point x="320" y="205" type="line"/>
      <point x="413" y="205" type="line" smooth="yes"/>
      <point x="430" y="205"/>
      <point x="452" y="197"/>
      <point x="457.5" y="185.5" type="qcurve" smooth="yes" name="inserted"/>
      <point x="463" y="174"/>
      <point x="463" y="134"/>
      <point x="457" y="102" type="qcurve" smooth="yes"/>
      <point x="451" y="70"/>
      <point x="438" y="30"/>
      <point x="428.5" y="19.0" type="qcurve" smooth="yes" name="inserted"/>
      <point x="419" y="8"/>
      <point x="394" y="0"/>
      <point x="377" y="0" type="qcurve" smooth="yes"/>
      <point x="3" y="0" type="line" smooth="yes"/>
      <point x="-14" y="0"/>
      <point x="-37" y="8"/>
      <point x="-42.5" y="19.0" type="qcurve" smooth="yes" name="inserted"/>
      <point x="-48" y="30"/>
      <point x="-49" y="70"/>
      <point x="-43" y="102" type="qcurve" smooth="yes"/>
      <point x="-37" y="134"/>
      <point x="-23" y="174"/>
      <point x="-13.5" y="185.5" type="qcurve" smooth="yes" name="inserted"/>
      <point x="-4" y="197"/>
      <point x="22" y="205"/>
      <point x="39" y="205" type="qcurve" smooth="yes"/>
      <point x="98" y="205" type="line"/>
    </contour>
  </outline>
</glyph>
<glyph name="N" format="1">
  <advance width="1228"/>
  <unicode hex="004E"/>
  <outline>
    <contour>
      <point x="283" y="982" type="line"/>
      <point x="216" y="982" type="line" smooth="yes"/>
      <point x="199" y="982"/>
      <point x="177" y="990"/>
      <point x="171.0" y="1001.0" type="qcurve" smooth="yes" name="inserted"/>
      <point x="165" y="1012"/>
      <point x="165" y="1052"/>
      <point x="171" y="1084" type="qcurve" smooth="yes"/>
      <point x="177" y="1116"/>
      <point x="191" y="1156"/>
      <point x="200.5" y="1167.5" type="qcurve" smooth="yes" name="inserted"/>
      <point x="210" y="1179"/>
      <point x="235" y="1187"/>
      <point x="252" y="1187" type="qcurve" smooth="yes"/>
      <point x="516" y="1187" type="line" smooth="yes"/>
      <point x="535" y="1187"/>
      <point x="561" y="1175"/>
      <point x="567" y="1160" type="qcurve" smooth="yes"/>
      <point x="857" y="453" type="line"/>
      <point x="951" y="982" type="line"/>
      <point x="863" y="982" type="line" smooth="yes"/>
      <point x="846" y="982"/>
      <point x="824" y="990"/>
      <point x="818.0" y="1001.0" type="qcurve" smooth="yes" name="inserted"/>
      <point x="812" y="1012"/>
      <point x="812" y="1052"/>
      <point x="818" y="1084" type="qcurve" smooth="yes"/>
      <point x="824" y="1116"/>
      <point x="838" y="1156"/>
      <point x="847.5" y="1167.5" type="qcurve" smooth="yes" name="inserted"/>
      <point x="857" y="1179"/>
      <point x="882" y="1187"/>
      <point x="899" y="1187" type="qcurve" smooth="yes"/>
      <point x="1274" y="1187" type="line" smooth="yes"/>
      <point x="1291" y="1187"/>
      <point x="1313" y="1179"/>
      <point x="1319.0" y="1167.5" type="qcurve" smooth="yes" name="inserted"/>
      <point x="1325" y="1156"/>
      <point x="1325" y="1116"/>
      <point x="1319" y="1084" type="qcurve" smooth="yes"/>
      <point x="1313" y="1052"/>
      <point x="1299" y="1012"/>
      <point x="1289.5" y="1001.0" type="qcurve" smooth="yes" name="inserted"/>
      <point x="1280" y="990"/>
      <point x="1255" y="982"/>
      <point x="1238" y="982" type="qcurve" smooth="yes"/>
      <point x="1181" y="982" type="line"/>
      <point x="1015" y="44" type="line" smooth="yes"/>
      <point x="1010" y="12"/>
      <point x="957" y="-22"/>
      <point x="894" y="-22" type="qcurve" smooth="yes"/>
      <point x="870" y="-22"/>
      <point x="837" y="-15"/>
      <point x="825.5" y="-8.5" type="qcurve" smooth="yes" name="inserted"/>
      <point x="814" y="-2"/>
      <point x="800" y="18"/>
      <point x="795" y="31" type="qcurve" smooth="yes"/>
      <point x="480" y="796" type="line"/>
      <point x="376" y="205" type="line"/>
      <point x="483" y="205" type="line" smooth="yes"/>
      <point x="500" y="205"/>
      <point x="522" y="197"/>
      <point x="527.5" y="185.5" type="qcurve" smooth="yes" name="inserted"/>
      <point x="533" y="174"/>
      <point x="533" y="134"/>
      <point x="527" y="102" type="qcurve" smooth="yes"/>
      <point x="521" y="70"/>
      <point x="508" y="30"/>
      <point x="498.5" y="19.0" type="qcurve" smooth="yes" name="inserted"/>
      <point x="489" y="8"/>
      <point x="464" y="0"/>
      <point x="447" y="0" type="qcurve" smooth="yes"/>
      <point x="43" y="0" type="line" smooth="yes"/>
      <point x="26" y="0"/>
      <point x="3" y="8"/>
      <point x="-2.5" y="19.0" type="qcurve" smooth="yes" name="inserted"/>
      <point x="-8" y="30"/>
      <point x="-9" y="70"/>
      <point x="-3" y="102" type="qcurve" smooth="yes"/>
      <point x="3" y="134"/>
      <point x="17" y="174"/>
      <point x="26.5" y="185.5" type="qcurve" smooth="yes" name="inserted"/>
      <point x="36" y="197"/>
      <point x="62" y="205"/>
      <point x="79" y="205" type="qcurve" smooth="yes"/>
      <point x="146" y="205" type="line"/>
    </contour>
  </outline>
</glyph>
<glyph name="O" format="1">
  <advance width="1228"/>
  <unicode hex="004F"/>
  <outline>
    <contour>
      <point x="580" y="205" type="qcurve" smooth="yes"/>
      <point x="661" y="205"/>
      <point x="788" y="273"/>
      <point x="835" y="338" type="qcurve" smooth="yes"/>
      <point x="862" y="376"/>
      <point x="903" y="470"/>
      <point x="916.5" y="520.5" type="qcurve" smooth="yes" name="inserted"/>
      <point x="930" y="571"/>
      <point x="944" y="673"/>
      <point x="944" y="720" type="qcurve" smooth="yes"/>
      <point x="944" y="847"/>
      <point x="832" y="982"/>
      <point x="717" y="982" type="qcurve" smooth="yes"/>
      <point x="636" y="982"/>
      <point x="509" y="914"/>
      <point x="462" y="849" type="qcurve" smooth="yes"/>
      <point x="435" y="811"/>
      <point x="394" y="717"/>
      <point x="380.5" y="666.5" type="qcurve" smooth="yes" name="inserted"/>
      <point x="367" y="616"/>
      <point x="353" y="513"/>
      <point x="353" y="467" type="qcurve" smooth="yes"/>
      <point x="353" y="340"/>
      <point x="465" y="205"/>
    </contour>
    <contour>
      <point x="560" y="-22" type="qcurve" smooth="yes"/>
      <point x="452" y="-22"/>
      <point x="278" y="48"/>
      <point x="216.5" y="112.0" type="qcurve" smooth="yes" name="inserted"/>
      <point x="155" y="176"/>
      <point x="88" y="358"/>
      <point x="88" y="471" type="qcurve" smooth="yes"/>
      <point x="88" y="530"/>
      <point x="107" y="658"/>
      <point x="125.5" y="721.0" type="qcurve" smooth="yes" name="inserted"/>
      <point x="144" y="784"/>
      <point x="199" y="904"/>
      <point x="235" y="956" type="qcurve" smooth="yes"/>
      <point x="322" y="1080"/>
      <point x="577" y="1209"/>
      <point x="737" y="1209" type="qcurve" smooth="yes"/>
      <point x="845" y="1209"/>
      <point x="1019" y="1139"/>
      <point x="1080.5" y="1075.0" type="qcurve" smooth="yes" name="inserted"/>
      <point x="1142" y="1011"/>
      <point x="1209" y="828"/>
      <point x="1209" y="716" type="qcurve" smooth="yes"/>
      <point x="1209" y="657"/>
      <point x="1190" y="529"/>
      <point x="1171.5" y="466.0" type="qcurve" smooth="yes" name="inserted"/>
      <point x="1153" y="403"/>
      <point x="1098" y="283"/>
      <point x="1062" y="231" type="qcurve" smooth="yes"/>
      <point x="975" y="107"/>
      <point x="720" y="-22"/>
    </contour>
  </outline>
</glyph>
<glyph name="c" format="1">
  <advance width="1228"/>
  <unicode hex="0063"/>
  <outline>
    <contour>
      <point x="918" y="883" type="line" smooth="yes"/>
      <point x="924" y="917"/>
      <point x="987" y="946"/>
      <point x="1051" y="946" type="qcurve" smooth="yes"/>
      <point x="1115" y="946"/>
      <point x="1154" y="917"/>
      <point x="1148" y="883" type="qcurve" smooth="yes"/>
      <point x="1092" y="562" type="line" smooth="yes"/>
      <point x="1086" y="528"/>
      <point x="1020" y="499"/>
      <point x="948" y="499" type="qcurve" smooth="yes"/>
      <point x="912" y="499"/>
      <point x="868" y="506"/>
      <point x="856.5" y="513.5" type="qcurve" smooth="yes" name="inserted"/>
      <point x="845" y="521"/>
      <point x="839" y="545"/>
      <point x="842" y="562" type="qcurve" smooth="yes"/>
      <point x="847" y="593"/>
      <point x="835" y="649"/>
      <point x="816.0" y="671.0" type="qcurve" smooth="yes" name="inserted"/>
      <point x="797" y="693"/>
      <point x="735" y="719"/>
      <point x="690" y="719" type="qcurve" smooth="yes"/>
      <point x="616" y="719"/>
      <point x="507" y="660"/>
      <point x="471.0" y="614.5" type="qcurve" smooth="yes" name="inserted"/>
      <point x="435" y="569"/>
      <point x="400" y="456"/>
      <point x="400" y="402" type="qcurve" smooth="yes"/>
      <point x="400" y="310"/>
      <point x="505" y="205"/>
      <point x="600" y="205" type="qcurve" smooth="yes"/>
      <point x="680" y="205"/>
      <point x="849" y="256"/>
      <point x="930" y="299" type="qcurve" smooth="yes"/>
      <point x="962" y="316"/>
      <point x="1014" y="282"/>
      <point x="1035" y="225" type="qcurve" smooth="yes"/>
      <point x="1057" y="166"/>
      <point x="1039" y="100"/>
      <point x="1005" y="83" type="qcurve" smooth="yes"/>
      <point x="906" y="35"/>
      <point x="680" y="-22"/>
      <point x="575" y="-22" type="qcurve" smooth="yes"/>
      <point x="472" y="-22"/>
      <point x="309" y="40"/>
      <point x="252.0" y="95.0" type="qcurve" smooth="yes" name="inserted"/>
      <point x="195" y="150"/>
      <point x="134" y="301"/>
      <point x="134" y="389" type="qcurve" smooth="yes"/>
      <point x="134" y="455"/>
      <point x="166" y="589"/>
      <point x="197.0" y="651.0" type="qcurve" smooth="yes" name="inserted"/>
      <point x="228" y="713"/>
      <point x="320" y="821"/>
      <point x="381.0" y="860.5" type="qcurve" smooth="yes" name="inserted"/>
      <point x="442" y="900"/>
      <point x="591" y="946"/>
      <point x="680" y="946" type="qcurve" smooth="yes"/>
      <point x="761" y="946"/>
      <point x="884" y="884"/>
      <point x="908" y="824" type="qcurve"/>
    </contour>
  </outline>
</glyph>
<glyph name="j" format="1">
  <advance width="1228"/>
  <unicode hex="006A"/>
  <outline>
    <contour>
      <point x="96" y="-315" type="qcurve" smooth="yes"/>
      <point x="66" y="-299"/>
      <point x="55" y="-237"/>
      <point x="87" y="-178" type="qcurve" smooth="yes"/>
      <point x="103" y="-148"/>
      <point x="132" y="-115"/>
      <point x="146.5" y="-108.0" type="qcurve" smooth="yes" name="inserted"/>
      <point x="161" y="-101"/>
      <point x="189" y="-103"/>
      <point x="203" y="-110" type="qcurve" smooth="yes"/>
      <point x="233" y="-125"/>
      <point x="296" y="-153"/>
      <point x="326.5" y="-164.0" type="qcurve" smooth="yes" name="inserted"/>
      <point x="357" y="-175"/>
      <point x="414" y="-188"/>
      <point x="440" y="-188" type="qcurve" smooth="yes"/>
      <point x="502" y="-188"/>
      <point x="583" y="-109"/>
      <point x="599" y="-22" type="qcurve" smooth="yes"/>
      <point x="729" y="719" type="line"/>
      <point x="346" y="719" type="line" smooth="yes"/>
      <point x="329" y="719"/>
      <point x="307" y="727"/>
      <point x="301.0" y="738.0" type="qcurve" smooth="yes" name="inserted"/>
      <point x="295" y="749"/>
      <point x="295" y="789"/>
      <point x="301" y="821" type="qcurve" smooth="yes"/>
      <point x="307" y="853"/>
      <point x="321" y="893"/>
      <point x="330.5" y="904.5" type="qcurve" smooth="yes" name="inserted"/>
      <point x="340" y="916"/>
      <point x="365" y="924"/>
      <point x="382" y="924" type="qcurve" smooth="yes"/>
      <point x="952" y="924" type="line" smooth="yes"/>
      <point x="986" y="924"/>
      <point x="1010" y="895"/>
      <point x="1004" y="861" type="qcurve" smooth="yes"/>
      <point x="844" y="-45" type="line" smooth="yes"/>
      <point x="811" y="-232"/>
      <point x="616" y="-415"/>
      <point x="442" y="-415" type="qcurve" smooth="yes"/>
      <point x="355" y="-415"/>
      <point x="179" y="-361"/>
    </contour>
    <contour>
      <point x="1056" y="1156" type="line" smooth="yes"/>
      <point x="1053" y="1139"/>
      <point x="1037" y="1115"/>
      <point x="1021.5" y="1107.5" type="qcurve" smooth="yes" name="inserted"/>
      <point x="1006" y="1100"/>
      <point x="958" y="1093"/>
      <point x="922" y="1093" type="qcurve" smooth="yes"/>
      <point x="851" y="1093"/>
      <point x="800" y="1122"/>
      <point x="806" y="1156" type="qcurve" smooth="yes"/>
      <point x="835" y="1320" type="line" smooth="yes"/>
      <point x="838" y="1337"/>
      <point x="854" y="1361"/>
      <point x="869.0" y="1368.5" type="qcurve" smooth="yes" name="inserted"/>
      <point x="884" y="1376"/>
      <point x="932" y="1383"/>
      <point x="968" y="1383" type="qcurve" smooth="yes"/>
      <point x="1039" y="1383"/>
      <point x="1091" y="1354"/>
      <point x="1085" y="1320" type="qcurve" smooth="yes"/>
    </contour>
  </outline>
</glyph>
<glyph name="m" format="1">
  <advance width="1228"/>
  <unicode hex="006D"/>
  <outline>
    <contour>
      <point x="105" y="719" type="line" smooth="yes"/>
      <point x="88" y="719"/>
      <point x="66" y="727"/>
      <point x="60.0" y="738.0" type="qcurve" smooth="yes" name="inserted"/>
      <point x="54" y="749"/>
      <point x="54" y="789"/>
      <point x="60" y="821" type="qcurve" smooth="yes"/>
      <point x="66" y="853"/>
      <point x="80" y="893"/>
      <point x="89.5" y="904.5" type="qcurve" smooth="yes" name="inserted"/>
      <point x="99" y="916"/>
      <point x="124" y="924"/>
      <point x="141" y="924" type="qcurve" smooth="yes"/>
      <point x="315" y="924" type="line" smooth="yes"/>
      <point x="349" y="924"/>
      <point x="373" y="895"/>
      <point x="367" y="861" type="qcurve" smooth="yes"/>
      <point x="342" y="717" type="line"/>
      <point x="405" y="832"/>
      <point x="547" y="946"/>
      <point x="622" y="946" type="qcurve" smooth="yes"/>
      <point x="700" y="946"/>
      <point x="775" y="840"/>
      <point x="782" y="743" type="qcurve"/>
      <point x="839" y="845"/>
      <point x="981" y="946"/>
      <point x="1052" y="946" type="qcurve" smooth="yes"/>
      <point x="1124" y="946"/>
      <point x="1215" y="843"/>
      <point x="1215" y="736" type="qcurve" smooth="yes"/>
      <point x="1215" y="713"/>
      <point x="1210" y="662"/>
      <point x="1205" y="633" type="qcurve" smooth="yes"/>
      <point x="1105" y="63" type="line" smooth="yes"/>
      <point x="1099" y="29"/>
      <point x="1065" y="0"/>
      <point x="1031" y="0" type="qcurve" smooth="yes"/>
      <point x="907" y="0" type="line" smooth="yes"/>
      <point x="873" y="0"/>
      <point x="849" y="29"/>
      <point x="855" y="63" type="qcurve" smooth="yes"/>
      <point x="947" y="586" type="line" smooth="yes"/>
      <point x="949" y="600"/>
      <point x="952" y="624"/>
      <point x="952" y="635" type="qcurve" smooth="yes"/>
      <point x="952.0" y="662.0" name="inserted"/>
      <point x="932.5" y="689.0"/>
      <point x="913" y="689" type="qcurve" smooth="yes"/>
      <point x="867" y="689"/>
      <point x="786" y="548"/>
      <point x="761" y="403" type="qcurve" smooth="yes"/>
      <point x="701" y="63" type="line" smooth="yes"/>
      <point x="695" y="29"/>
      <point x="661" y="0"/>
      <point x="627" y="0" type="qcurve" smooth="yes"/>
      <point x="503" y="0" type="line" smooth="yes"/>
      <point x="469" y="0"/>
      <point x="445" y="29"/>
      <point x="451" y="63" type="qcurve" smooth="yes"/>
      <point x="543" y="586" type="line" smooth="yes"/>
      <point x="545" y="600"/>
      <point x="548" y="624"/>
      <point x="548" y="635" type="qcurve" smooth="yes"/>
      <point x="548.0" y="662.0" name="inserted"/>
      <point x="528.5" y="689.0"/>
      <point x="509" y="689" type="qcurve" smooth="yes"/>
      <point x="463" y="689"/>
      <point x="382" y="548"/>
      <point x="357" y="403" type="qcurve" smooth="yes"/>
      <point x="297" y="63" type="line" smooth="yes"/>
      <point x="291" y="29"/>
      <point x="257" y="0"/>
      <point x="223" y="0" type="qcurve" smooth="yes"/>
      <point x="99" y="0" type="line" smooth="yes"/>
      <point x="65" y="0"/>
      <point x="41" y="29"/>
      <point x="47" y="63" type="qcurve" smooth="yes"/>
      <point x="162" y="719" type="line"/>
    </contour>
  </outline>
</glyph>
<glyph name="q" format="1">
  <advance width="1228"/>
  <unicode hex="0071"/>
  <outline>
    <contour>
      <point x="639" y="946" type="qcurve" smooth="yes"/>
      <point x="736" y="946"/>
      <point x="880" y="867"/>
      <point x="925" y="791" type="qcurve"/>
      <point x="939" y="871" type="line" smooth="yes"/>
      <point x="945" y="905"/>
      <point x="1005" y="934"/>
      <point x="1062" y="934" type="qcurve" smooth="yes"/>
      <point x="1118" y="934"/>
      <point x="1155" y="905"/>
      <point x="1149" y="871" type="qcurve" smooth="yes"/>
      <point x="962" y="-188" type="line"/>
      <point x="1069" y="-188" type="line" smooth="yes"/>
      <point x="1086" y="-188"/>
      <point x="1108" y="-196"/>
      <point x="1114.0" y="-207.5" type="qcurve" smooth="yes" name="inserted"/>
      <point x="1120" y="-219"/>
      <point x="1120" y="-259"/>
      <point x="1114" y="-291" type="qcurve" smooth="yes"/>
      <point x="1108" y="-323"/>
      <point x="1094" y="-363"/>
      <point x="1084.5" y="-374.0" type="qcurve" smooth="yes" name="inserted"/>
      <point x="1075" y="-385"/>
      <point x="1050" y="-393"/>
      <point x="1033" y="-393" type="qcurve" smooth="yes"/>
      <point x="459" y="-393" type="line" smooth="yes"/>
      <point x="442" y="-393"/>
      <point x="420" y="-385"/>
      <point x="414.0" y="-374.0" type="qcurve" smooth="yes" name="inserted"/>
      <point x="408" y="-363"/>
      <point x="408" y="-323"/>
      <point x="414" y="-291" type="qcurve" smooth="yes"/>
      <point x="420" y="-259"/>
      <point x="434" y="-219"/>
      <point x="443.5" y="-207.5" type="qcurve" smooth="yes" name="inserted"/>
      <point x="453" y="-196"/>
      <point x="478" y="-188"/>
      <point x="495" y="-188" type="qcurve" smooth="yes"/>
      <point x="712" y="-188" type="line"/>
      <point x="767" y="123" type="line"/>
      <point x="708" y="69"/>
      <point x="569" y="8"/>
      <point x="494" y="8" type="qcurve" smooth="yes"/>
      <point x="408" y="8"/>
      <point x="272" y="67"/>
      <point x="225.5" y="118.5" type="qcurve" smooth="yes" name="inserted"/>
      <point x="179" y="170"/>
      <point x="130" y="312"/>
      <point x="130" y="395" type="qcurve" smooth="yes"/>
      <point x="130" y="459"/>
      <point x="158" y="591"/>
      <point x="186.0" y="652.0" type="qcurve" smooth="yes" name="inserted"/>
      <point x="214" y="713"/>
      <point x="298" y="820"/>
      <point x="355.0" y="860.0" type="qcurve" smooth="yes" name="inserted"/>
      <point x="412" y="900"/>
      <point x="553" y="946"/>
    </contour>
    <contour>
      <point x="564" y="235" type="qcurve" smooth="yes"/>
      <point x="633" y="235"/>
      <point x="737" y="288"/>
      <point x="771.5" y="330.5" type="qcurve" smooth="yes" name="inserted"/>
      <point x="806" y="373"/>
      <point x="841" y="480"/>
      <point x="841" y="534" type="qcurve" smooth="yes"/>
      <point x="841" y="580"/>
      <point x="812" y="650"/>
      <point x="786.0" y="673.0" type="qcurve" smooth="yes" name="inserted"/>
      <point x="760" y="696"/>
      <point x="690" y="719"/>
      <point x="649" y="719" type="qcurve" smooth="yes"/>
      <point x="584" y="719"/>
      <point x="489" y="662"/>
      <point x="458.0" y="617.5" type="qcurve" smooth="yes" name="inserted"/>
      <point x="427" y="573"/>
      <point x="397" y="464"/>
      <point x="397" y="412" type="qcurve" smooth="yes"/>
      <point x="397" y="325"/>
      <point x="486" y="235"/>
    </contour>
  </outline>
</glyph>
<glyph name="w" format="1">
  <advance width="1228"/>
  <unicode hex="0077"/>
  <outline>
    <contour>
      <point x="99" y="719" type="line" smooth="yes"/>
      <point x="82" y="719"/>
      <point x="60" y="727"/>
      <point x="54.0" y="738.0" type="qcurve" smooth="yes" name="inserted"/>
      <point x="48" y="749"/>
      <point x="48" y="789"/>
      <point x="54" y="821" type="qcurve" smooth="yes"/>
      <point x="60" y="853"/>
      <point x="74" y="893"/>
      <point x="83.5" y="904.5" type="qcurve" smooth="yes" name="inserted"/>
      <point x="93" y="916"/>
      <point x="118" y="924"/>
      <point x="135" y="924" type="qcurve" smooth="yes"/>
      <point x="471" y="924" type="line" smooth="yes"/>
      <point x="488" y="924"/>
      <point x="510" y="916"/>
      <point x="516.0" y="904.5" type="qcurve" smooth="yes" name="inserted"/>
      <point x="522" y="893"/>
      <point x="522" y="853"/>
      <point x="516" y="821" type="qcurve" smooth="yes"/>
      <point x="510" y="789"/>
      <point x="496" y="749"/>
      <point x="486.5" y="738.0" type="qcurve" smooth="yes" name="inserted"/>
      <point x="477" y="727"/>
      <point x="452" y="719"/>
      <point x="435" y="719" type="qcurve" smooth="yes"/>
      <point x="350" y="719" type="line"/>
      <point x="357" y="331" type="line"/>
      <point x="555" y="670" type="line" smooth="yes"/>
      <point x="570" y="696"/>
      <point x="617" y="727"/>
      <point x="661" y="727" type="qcurve" smooth="yes"/>
      <point x="706" y="727"/>
      <point x="743" y="703"/>
      <point x="749" y="677" type="qcurve" smooth="yes"/>
      <point x="825" y="331" type="line"/>
      <point x="971" y="719" type="line"/>
      <point x="899" y="719" type="line" smooth="yes"/>
      <point x="882" y="719"/>
      <point x="860" y="727"/>
      <point x="854.0" y="738.0" type="qcurve" smooth="yes" name="inserted"/>
      <point x="848" y="749"/>
      <point x="848" y="789"/>
      <point x="854" y="821" type="qcurve" smooth="yes"/>
      <point x="860" y="853"/>
      <point x="874" y="893"/>
      <point x="883.5" y="904.5" type="qcurve" smooth="yes" name="inserted"/>
      <point x="893" y="916"/>
      <point x="918" y="924"/>
      <point x="935" y="924" type="qcurve" smooth="yes"/>
      <point x="1277" y="924" type="line" smooth="yes"/>
      <point x="1294" y="924"/>
      <point x="1316" y="916"/>
      <point x="1322.0" y="904.5" type="qcurve" smooth="yes" name="inserted"/>
      <point x="1328" y="893"/>
      <point x="1328" y="853"/>
      <point x="1322" y="821" type="qcurve" smooth="yes"/>
      <point x="1316" y="789"/>
      <point x="1302" y="749"/>
      <point x="1292.5" y="738.0" type="qcurve" smooth="yes" name="inserted"/>
      <point x="1283" y="727"/>
      <point x="1258" y="719"/>
      <point x="1241" y="719" type="qcurve" smooth="yes"/>
      <point x="1200" y="719" type="line"/>
      <point x="935" y="43" type="line" smooth="yes"/>
      <point x="921" y="7"/>
      <point x="864" y="-22"/>
      <point x="803" y="-22" type="qcurve" smooth="yes"/>
      <point x="742" y="-22"/>
      <point x="694" y="10"/>
      <point x="687" y="43" type="qcurve" smooth="yes"/>
      <point x="610" y="398" type="line"/>
      <point x="405" y="43" type="line" smooth="yes"/>
      <point x="395" y="26"/>
      <point x="372" y="2"/>
      <point x="355.5" y="-6.0" type="qcurve" smooth="yes" name="inserted"/>
      <point x="339" y="-14"/>
      <point x="295" y="-22"/>
      <point x="265" y="-22" type="qcurve" smooth="yes"/>
      <point x="204" y="-22"/>
      <point x="159" y="8"/>
      <point x="157" y="43" type="qcurve" smooth="yes"/>
      <point x="133" y="719" type="line"/>
    </contour>
  </outline>
</glyph>
<glyph name="z" format="1">
  <advance width="1228"/>
  <unicode hex="007A"/>
  <outline>
    <contour>
      <point x="1099" y="924" type="line" smooth="yes"/>
      <point x="1116" y="924"/>
      <point x="1138" y="916"/>
      <point x="1144.0" y="905.0" type="qcurve" smooth="yes" name="inserted"/>
      <point x="1150" y="894"/>
      <point x="1150" y="854"/>
      <point x="1144" y="822" type="qcurve" smooth="yes"/>
      <point x="1139" y="795"/>
      <point x="1119" y="759"/>
      <point x="1098" y="740" type="qcurve" smooth="yes"/>
      <point x="511" y="205" type="line"/>
      <point x="826" y="205" type="line"/>
      <point x="848" y="329" type="line" smooth="yes"/>
      <point x="853" y="363"/>
      <point x="910" y="392"/>
      <point x="981" y="392" type="qcurve" smooth="yes"/>
      <point x="1017" y="392"/>
      <point x="1058" y="385"/>
      <point x="1068.0" y="377.5" type="qcurve" smooth="yes" name="inserted"/>
      <point x="1078" y="370"/>
      <point x="1081" y="346"/>
      <point x="1078" y="329" type="qcurve" smooth="yes"/>
      <point x="1031" y="65" type="line" smooth="yes"/>
      <point x="1025" y="30"/>
      <point x="990" y="0"/>
      <point x="955" y="0" type="qcurve" smooth="yes"/>
      <point x="141" y="0" type="line" smooth="yes"/>
      <point x="124" y="0"/>
      <point x="101" y="8"/>
      <point x="95.5" y="19.0" type="qcurve" smooth="yes" name="inserted"/>
      <point x="90" y="30"/>
      <point x="89" y="70"/>
      <point x="95" y="102" type="qcurve" smooth="yes"/>
      <point x="100" y="129"/>
      <point x="121" y="165"/>
      <point x="142" y="184" type="qcurve" smooth="yes"/>
      <point x="729" y="719" type="line"/>
      <point x="434" y="719" type="line"/>
      <point x="414" y="605" type="line" smooth="yes"/>
      <point x="411" y="588"/>
      <point x="395" y="564"/>
      <point x="380.0" y="556.5" type="qcurve" smooth="yes" name="inserted"/>
      <point x="365" y="549"/>
      <point x="317" y="542"/>
      <point x="281" y="542" type="qcurve" smooth="yes"/>
      <point x="245" y="542"/>
      <point x="204" y="549"/>
      <point x="194.0" y="556.5" type="qcurve" smooth="yes" name="inserted"/>
      <point x="184" y="564"/>
      <point x="181" y="588"/>
      <point x="184" y="605" type="qcurve" smooth="yes"/>
      <point x="229" y="859" type="line" smooth="yes"/>
      <point x="235" y="894"/>
      <point x="270" y="924"/>
      <point x="305" y="924" type="qcurve" smooth="yes"/>
    </contour>
  </outline>
</glyph>
<glyph name="braceleft" format="1">
  <advance width="1228"/>
  <unicode hex="007B"/>
  <outline>
    <contour>
      <point x="552" y="472" type="qcurve"/>
      <point x="617" y="433"/>
      <point x="677" y="286"/>
      <point x="659" y="183" type="qcurve" smooth="yes"/>
      <point x="628" y="2" type="line" smooth="yes"/>
      <point x="611" y="-98"/>
      <point x="673" y="-188"/>
      <point x="751" y="-188" type="qcurve" smooth="yes"/>
      <point x="768" y="-188"/>
      <point x="790" y="-196"/>
      <point x="796.0" y="-207.0" type="qcurve" smooth="yes" name="inserted"/>
      <point x="802" y="-218"/>
      <point x="802" y="-258"/>
      <point x="796" y="-290" type="qcurve" smooth="yes"/>
      <point x="790" y="-322"/>
      <point x="776" y="-362"/>
      <point x="766.5" y="-373.5" type="qcurve" smooth="yes" name="inserted"/>
      <point x="757" y="-385"/>
      <point x="732" y="-393"/>
      <point x="715" y="-393" type="qcurve" smooth="yes"/>
      <point x="515" y="-393"/>
      <point x="346" y="-183"/>
      <point x="380" y="10" type="qcurve" smooth="yes"/>
      <point x="412" y="193" type="line" smooth="yes"/>
      <point x="428" y="283"/>
      <point x="359" y="379"/>
      <point x="264" y="379" type="qcurve" smooth="yes"/>
      <point x="247" y="379"/>
      <point x="225" y="387"/>
      <point x="219.5" y="398.5" type="qcurve" smooth="yes" name="inserted"/>
      <point x="214" y="410"/>
      <point x="214" y="450"/>
      <point x="219" y="482" type="qcurve" smooth="yes"/>
      <point x="225" y="514"/>
      <point x="239" y="554"/>
      <point x="248.5" y="565.0" type="qcurve" smooth="yes" name="inserted"/>
      <point x="258" y="576"/>
      <point x="283" y="584"/>
      <point x="300" y="584" type="qcurve" smooth="yes"/>
      <point x="396" y="584"/>
      <point x="497" y="679"/>
      <point x="513" y="770" type="qcurve" smooth="yes"/>
      <point x="545" y="949" type="line" smooth="yes"/>
      <point x="562" y="1046"/>
      <point x="639" y="1184"/>
      <point x="698.0" y="1227.5" type="qcurve" smooth="yes" name="inserted"/>
      <point x="757" y="1271"/>
      <point x="916" y="1312"/>
      <point x="1016" y="1312" type="qcurve" smooth="yes"/>
      <point x="1033" y="1312"/>
      <point x="1055" y="1304"/>
      <point x="1061.0" y="1292.5" type="qcurve" smooth="yes" name="inserted"/>
      <point x="1067" y="1281"/>
      <point x="1067" y="1241"/>
      <point x="1061" y="1209" type="qcurve" smooth="yes"/>
      <point x="1055" y="1177"/>
      <point x="1041" y="1137"/>
      <point x="1031.5" y="1126.0" type="qcurve" smooth="yes" name="inserted"/>
      <point x="1022" y="1115"/>
      <point x="997" y="1107"/>
      <point x="980" y="1107" type="qcurve" smooth="yes"/>
      <point x="902" y="1107"/>
      <point x="806" y="1017"/>
      <point x="789" y="917" type="qcurve" smooth="yes"/>
      <point x="758" y="740" type="line" smooth="yes"/>
      <point x="749" y="689"/>
      <point x="711" y="606"/>
      <point x="684.0" y="573.5" type="qcurve" smooth="yes" name="inserted"/>
      <point x="657" y="541"/>
      <point x="590" y="491"/>
    </contour>
  </outline>
</glyph>
<glyph name="asciitilde" format="1">
  <advance width="1228"/>
  <unicode hex="007E"/>
  <outline>
    <contour>
      <point x="1101" y="531" type="qcurve" smooth="yes"/>
      <point x="1061" y="500"/>
      <point x="988" y="458"/>
      <point x="954.0" y="445.5" type="qcurve" smooth="yes" name="inserted"/>
      <point x="920" y="433"/>
      <point x="857" y="422"/>
      <point x="827" y="422" type="qcurve" smooth="yes"/>
      <point x="774" y="422"/>
      <point x="677" y="448"/>
      <point x="629.0" y="463.5" type="qcurve" smooth="yes" name="inserted"/>
      <point x="581" y="479"/>
      <point x="484" y="505"/>
      <point x="432" y="505" type="qcurve" smooth="yes"/>
      <point x="392" y="505"/>
      <point x="307" y="485"/>
      <point x="259" y="460" type="qcurve" smooth="yes"/>
      <point x="242" y="451"/>
      <point x="213" y="456"/>
      <point x="202.0" y="466.0" type="qcurve" smooth="yes" name="inserted"/>
      <point x="191" y="476"/>
      <point x="175" y="509"/>
      <point x="171" y="527" type="qcurve" smooth="yes"/>
      <point x="164" y="557"/>
      <point x="174" y="617"/>
      <point x="191" y="631" type="qcurve" smooth="yes"/>
      <point x="270" y="693"/>
      <point x="406" y="740"/>
      <point x="466" y="740" type="qcurve" smooth="yes"/>
      <point x="519" y="740"/>
      <point x="617" y="714"/>
      <point x="665.0" y="699.0" type="qcurve" smooth="yes" name="inserted"/>
      <point x="713" y="684"/>
      <point x="810" y="658"/>
      <point x="862" y="658" type="qcurve" smooth="yes"/>
      <point x="902" y="658"/>
      <point x="986" y="678"/>
      <point x="1033" y="702" type="qcurve" smooth="yes"/>
      <point x="1049" y="710"/>
      <point x="1077" y="707"/>
      <point x="1088.0" y="698.0" type="qcurve" smooth="yes" name="inserted"/>
      <point x="1099" y="689"/>
      <point x="1114" y="660"/>
      <point x="1119" y="643" type="qcurve" smooth="yes"/>
      <point x="1127" y="611"/>
      <point x="1120" y="546"/>
    </contour>
  </outline>
</glyph>
<glyph name="brokenbar" format="1">
  <advance width="1228"/>
  <unicode hex="00A6"/>
  <outline>
    <contour>
      <point x="466" y="271" type="line" smooth="yes"/>
      <point x="472" y="305"/>
      <point x="545" y="334"/>
      <point x="609" y="334" type="qcurve" smooth="yes"/>
      <point x="673" y="334"/>
      <point x="722" y="305"/>
      <point x="716" y="271" type="qcurve" smooth="yes"/>
      <point x="606" y="-352" type="line" smooth="yes"/>
      <point x="600" y="-386"/>
      <point x="527" y="-415"/>
      <point x="463" y="-415" type="qcurve" smooth="yes"/>
      <point x="399" y="-415"/>
      <point x="350" y="-386"/>
      <point x="356" y="-352" type="qcurve" smooth="yes"/>
    </contour>
    <contour>
      <point x="643" y="1271" type="line" smooth="yes"/>
      <point x="649" y="1305"/>
      <point x="722" y="1334"/>
      <point x="786" y="1334" type="qcurve" smooth="yes"/>
      <point x="850" y="1334"/>
      <point x="899" y="1305"/>
      <point x="893" y="1271" type="qcurve" smooth="yes"/>
      <point x="783" y="648" type="line" smooth="yes"/>
      <point x="777" y="614"/>
      <point x="704" y="585"/>
      <point x="640" y="585" type="qcurve" smooth="yes"/>
      <point x="576" y="585"/>
      <point x="527" y="614"/>
      <point x="533" y="648" type="qcurve" smooth="yes"/>
    </contour>
  </outline>
</glyph>
<glyph name="copyright" format="1">
  <advance width="1228"/>
  <unicode hex="00A9"/>
  <outline>
    <contour>
      <point x="643" y="422" type="qcurve" smooth="yes"/>
      <point x="678" y="422"/>
      <point x="749" y="438"/>
      <point x="786" y="450" type="qcurve" smooth="yes"/>
      <point x="813" y="459"/>
      <point x="836" y="433"/>
      <point x="847" y="395" type="qcurve" smooth="yes"/>
      <point x="858" y="354"/>
      <point x="848" y="306"/>
      <point x="816" y="292" type="qcurve" smooth="yes"/>
      <point x="769" y="271"/>
      <point x="669" y="249"/>
      <point x="622" y="249" type="qcurve" smooth="yes"/>
      <point x="559" y="249"/>
      <point x="453" y="288"/>
      <point x="415.5" y="324.0" type="qcurve" smooth="yes" name="inserted"/>
      <point x="378" y="360"/>
      <point x="336" y="463"/>
      <point x="336" y="528" type="qcurve" smooth="yes"/>
      <point x="336" y="563"/>
      <point x="349" y="643"/>
      <point x="363.5" y="682.5" type="qcurve" smooth="yes" name="inserted"/>
      <point x="378" y="722"/>
      <point x="421" y="797"/>
      <point x="451" y="828" type="qcurve" smooth="yes"/>
      <point x="503" y="882"/>
      <point x="643" y="937"/>
      <point x="724" y="937" type="qcurve" smooth="yes"/>
      <point x="771" y="937"/>
      <point x="863" y="915"/>
      <point x="902" y="894" type="qcurve" smooth="yes"/>
      <point x="929" y="880"/>
      <point x="934" y="834"/>
      <point x="916" y="792" type="qcurve" smooth="yes"/>
      <point x="900.0" y="755.0" name="inserted"/>
      <point x="860.0" y="727.0"/>
      <point x="836" y="736" type="qcurve" smooth="yes"/>
      <point x="804" y="748"/>
      <point x="738" y="764"/>
      <point x="703" y="764" type="qcurve" smooth="yes"/>
      <point x="663.5" y="764.0" name="inserted"/>
      <point x="599.0" y="737.5"/>
      <point x="574" y="711" type="qcurve" smooth="yes"/>
      <point x="545" y="680"/>
      <point x="515" y="594"/>
      <point x="515" y="549" type="qcurve" smooth="yes"/>
      <point x="515" y="487"/>
      <point x="582" y="422"/>
    </contour>
    <contour>
      <point x="566" y="131" type="qcurve" smooth="yes"/>
      <point x="645" y="131"/>
      <point x="783" y="175"/>
      <point x="841.0" y="214.0" type="qcurve" smooth="yes" name="inserted"/>
      <point x="899" y="253"/>
      <point x="991" y="360"/>
      <point x="1022.5" y="422.0" type="qcurve" smooth="yes" name="inserted"/>
      <point x="1054" y="484"/>
      <point x="1088" y="622"/>
      <point x="1088" y="692" type="qcurve" smooth="yes"/>
      <point x="1088" y="773"/>
      <point x="1040" y="907"/>
      <point x="994.0" y="955.0" type="qcurve" smooth="yes" name="inserted"/>
      <point x="948" y="1003"/>
      <point x="814" y="1056"/>
      <point x="729" y="1056" type="qcurve" smooth="yes"/>
      <point x="650" y="1056"/>
      <point x="512" y="1012"/>
      <point x="453.5" y="973.0" type="qcurve" smooth="yes" name="inserted"/>
      <point x="395" y="934"/>
      <point x="303" y="827"/>
      <point x="271.5" y="765.0" type="qcurve" smooth="yes" name="inserted"/>
      <point x="240" y="703"/>
      <point x="206" y="565"/>
      <point x="206" y="495" type="qcurve" smooth="yes"/>
      <point x="206" y="415"/>
      <point x="254" y="281"/>
      <point x="300.0" y="233.0" type="qcurve" smooth="yes" name="inserted"/>
      <point x="346" y="185"/>
      <point x="480" y="131"/>
    </contour>
    <contour>
      <point x="549" y="-22" type="qcurve" smooth="yes"/>
      <point x="436" y="-22"/>
      <point x="254" y="57"/>
      <point x="189.5" y="126.0" type="qcurve" smooth="yes" name="inserted"/>
      <point x="125" y="195"/>
      <point x="55" y="383"/>
      <point x="55" y="493" type="qcurve" smooth="yes"/>
      <point x="55" y="583"/>
      <point x="99" y="759"/>
      <point x="141.5" y="838.5" type="qcurve" smooth="yes" name="inserted"/>
      <point x="184" y="918"/>
      <point x="305" y="1054"/>
      <point x="381.5" y="1103.5" type="qcurve" smooth="yes" name="inserted"/>
      <point x="458" y="1153"/>
      <point x="642" y="1209"/>
      <point x="746" y="1209" type="qcurve" smooth="yes"/>
      <point x="858" y="1209"/>
      <point x="1040" y="1131"/>
      <point x="1104.5" y="1062.5" type="qcurve" smooth="yes" name="inserted"/>
      <point x="1169" y="994"/>
      <point x="1239" y="805"/>
      <point x="1239" y="694" type="qcurve" smooth="yes"/>
      <point x="1239" y="604"/>
      <point x="1195" y="428"/>
      <point x="1153.0" y="348.5" type="qcurve" smooth="yes" name="inserted"/>
      <point x="1111" y="269"/>
      <point x="990" y="133"/>
      <point x="913.5" y="83.5" type="qcurve" smooth="yes" name="inserted"/>
      <point x="837" y="34"/>
      <point x="653" y="-22"/>
    </contour>
  </outline>
</glyph>
<glyph name="ordfeminine" format="1">
  <advance width="1228"/>
  <unicode hex="00AA"/>
  <outline>
    <contour>
      <point x="830" y="580" type="qcurve"/>
      <point x="773" y="520"/>
      <point x="643" y="465"/>
      <point x="576" y="465" type="qcurve" smooth="yes"/>
      <point x="508" y="465"/>
      <point x="403" y="513"/>
      <point x="366.0" y="555.0" type="qcurve" smooth="yes" name="inserted"/>
      <point x="329" y="597"/>
      <point x="291" y="709"/>
      <point x="291" y="774" type="qcurve" smooth="yes"/>
      <point x="291" y="847"/>
      <point x="339" y="1001"/>
      <point x="387.5" y="1064.5" type="qcurve" smooth="yes" name="inserted"/>
      <point x="436" y="1128"/>
      <point x="584" y="1209"/>
      <point x="683" y="1209" type="qcurve" smooth="yes"/>
      <point x="758" y="1209"/>
      <point x="873" y="1140"/>
      <point x="902" y="1079" type="qcurve"/>
      <point x="914" y="1151" type="line" smooth="yes"/>
      <point x="919" y="1177"/>
      <point x="965" y="1200"/>
      <point x="1009" y="1200" type="qcurve" smooth="yes"/>
      <point x="1052" y="1200"/>
      <point x="1080" y="1177"/>
      <point x="1075" y="1151" type="qcurve" smooth="yes"/>
      <point x="997" y="705" type="line" smooth="yes"/>
      <point x="991" y="674"/>
      <point x="1011" y="640"/>
      <point x="1036" y="640" type="qcurve" smooth="yes"/>
      <point x="1058" y="640" type="line" smooth="yes"/>
      <point x="1084" y="640"/>
      <point x="1101" y="609"/>
      <point x="1092" y="560" type="qcurve" smooth="yes"/>
      <point x="1088" y="536"/>
      <point x="1077" y="505"/>
      <point x="1070.0" y="496.5" type="qcurve" smooth="yes" name="inserted"/>
      <point x="1063" y="488"/>
      <point x="1044" y="482"/>
      <point x="1031" y="482" type="qcurve" smooth="yes"/>
      <point x="958" y="482" type="line" smooth="yes"/>
      <point x="935" y="482"/>
      <point x="893" y="492"/>
      <point x="875.5" y="503.5" type="qcurve" smooth="yes" name="inserted"/>
      <point x="858" y="515"/>
      <point x="834" y="553"/>
    </contour>
    <contour>
      <point x="622" y="640" type="qcurve" smooth="yes"/>
      <point x="674" y="640"/>
      <point x="754" y="684"/>
      <point x="781.5" y="719.0" type="qcurve" smooth="yes" name="inserted"/>
      <point x="809" y="754"/>
      <point x="838" y="841"/>
      <point x="838" y="883" type="qcurve" smooth="yes"/>
      <point x="838" y="958"/>
      <point x="754" y="1035"/>
      <point x="691" y="1035" type="qcurve" smooth="yes"/>
      <point x="638" y="1035"/>
      <point x="564" y="984"/>
      <point x="540.5" y="946.0" type="qcurve" smooth="yes" name="inserted"/>
      <point x="517" y="908"/>
      <point x="495" y="820"/>
      <point x="495" y="783" type="qcurve" smooth="yes"/>
      <point x="495" y="716"/>
      <point x="561" y="640"/>
    </contour>
  </outline>
</glyph>
<glyph name="guillemotleft" format="1">
  <advance width="1228"/>
  <unicode hex="00AB"/>
  <outline>
    <contour>
      <point x="566" y="266" type="line" smooth="yes"/>
      <point x="572" y="252"/>
      <point x="562" y="224"/>
      <point x="549.5" y="211.5" type="qcurve" smooth="yes" name="inserted"/>
      <point x="537" y="199"/>
      <point x="501" y="177"/>
      <point x="480" y="170" type="qcurve" smooth="yes"/>
      <point x="459" y="162"/>
      <point x="416" y="155"/>
      <point x="397.0" y="156.5" type="qcurve" smooth="yes" name="inserted"/>
      <point x="378" y="158"/>
      <point x="350" y="172"/>
      <point x="344" y="186" type="qcurve" smooth="yes"/>
      <point x="196" y="530" type="line" smooth="yes"/>
      <point x="190.5" y="543.0" name="inserted"/>
      <point x="195.0" y="568.5"/>
      <point x="205" y="581" type="qcurve" smooth="yes"/>
      <point x="475" y="925" type="line" smooth="yes"/>
      <point x="485" y="938"/>
      <point x="517" y="949"/>
      <point x="535.5" y="948.0" type="qcurve" smooth="yes" name="inserted"/>
      <point x="554" y="947"/>
      <point x="592" y="933"/>
      <point x="610" y="922" type="qcurve" smooth="yes"/>
      <point x="628" y="911"/>
      <point x="656" y="882"/>
      <point x="664.0" y="866.5" type="qcurve" smooth="yes" name="inserted"/>
      <point x="672" y="851"/>
      <point x="672" y="819"/>
      <point x="661" y="805" type="qcurve" smooth="yes"/>
      <point x="450" y="536" type="line"/>
    </contour>
    <contour>
      <point x="1006" y="266" type="line" smooth="yes"/>
      <point x="1012" y="252"/>
      <point x="1002" y="224"/>
      <point x="989.5" y="211.5" type="qcurve" smooth="yes" name="inserted"/>
      <point x="977" y="199"/>
      <point x="941" y="177"/>
      <point x="920" y="170" type="qcurve" smooth="yes"/>
      <point x="899" y="162"/>
      <point x="856" y="155"/>
      <point x="837.0" y="156.5" type="qcurve" smooth="yes" name="inserted"/>
      <point x="818" y="158"/>
      <point x="790" y="172"/>
      <point x="784" y="186" type="qcurve" smooth="yes"/>
      <point x="636" y="530" type="line" smooth="yes"/>
      <point x="630.5" y="543.0" name="inserted"/>
      <point x="635.0" y="568.5"/>
      <point x="645" y="581" type="qcurve" smooth="yes"/>
      <point x="915" y="925" type="line" smooth="yes"/>
      <point x="925" y="938"/>
      <point x="957" y="949"/>
      <point x="975.5" y="948.0" type="qcurve" smooth="yes" name="inserted"/>
      <point x="994" y="947"/>
      <point x="1032" y="933"/>
      <point x="1050" y="922" type="qcurve" smooth="yes"/>
      <point x="1068" y="911"/>
      <point x="1096" y="882"/>
      <point x="1104.0" y="866.5" type="qcurve" smooth="yes" name="inserted"/>
      <point x="1112" y="851"/>
      <point x="1112" y="819"/>
      <point x="1101" y="805" type="qcurve" smooth="yes"/>
      <point x="890" y="536" type="line"/>
    </contour>
  </outline>
</glyph>
<glyph name="twosuperior" format="1">
  <advance width="1228"/>
  <unicode hex="00B2"/>
  <outline>
    <contour>
      <point x="607" y="1047" type="line" smooth="yes"/>
      <point x="605" y="1035"/>
      <point x="594" y="1017"/>
      <point x="583.5" y="1011.0" type="qcurve" smooth="yes" name="inserted"/>
      <point x="573" y="1005"/>
      <point x="539" y="999"/>
      <point x="513" y="999" type="qcurve" smooth="yes"/>
      <point x="460" y="999"/>
      <point x="417" y="1023"/>
      <point x="422" y="1047" type="qcurve" smooth="yes"/>
      <point x="454" y="1225" type="line" smooth="yes"/>
      <point x="456.0" y="1239.5" name="inserted"/>
      <point x="475.5" y="1262.0"/>
      <point x="493" y="1270" type="qcurve" smooth="yes"/>
      <point x="565" y="1303"/>
      <point x="721" y="1334"/>
      <point x="796" y="1334" type="qcurve" smooth="yes"/>
      <point x="860" y="1334"/>
      <point x="960" y="1298"/>
      <point x="994.0" y="1266.0" type="qcurve" smooth="yes" name="inserted"/>
      <point x="1028" y="1234"/>
      <point x="1063" y="1146"/>
      <point x="1063" y="1094" type="qcurve" smooth="yes"/>
      <point x="1063" y="1060"/>
      <point x="1047" y="1000"/>
      <point x="1030" y="968" type="qcurve" smooth="yes"/>
      <point x="1006" y="923"/>
      <point x="907" y="841"/>
      <point x="839" y="794" type="qcurve" smooth="yes"/>
      <point x="635" y="653" type="line"/>
      <point x="853" y="653" type="line"/>
      <point x="861" y="699" type="line" smooth="yes"/>
      <point x="863" y="711"/>
      <point x="873" y="729"/>
      <point x="883.5" y="735.0" type="qcurve" smooth="yes" name="inserted"/>
      <point x="894" y="741"/>
      <point x="929" y="747"/>
      <point x="955" y="747" type="qcurve" smooth="yes"/>
      <point x="1008" y="747"/>
      <point x="1050" y="723"/>
      <point x="1046" y="699" type="qcurve" smooth="yes"/>
      <point x="1016" y="529" type="line" smooth="yes"/>
      <point x="1011" y="504"/>
      <point x="987" y="483"/>
      <point x="962" y="483" type="qcurve" smooth="yes"/>
      <point x="367" y="483" type="line" smooth="yes"/>
      <point x="343" y="483"/>
      <point x="322" y="530"/>
      <point x="331" y="583" type="qcurve" smooth="yes"/>
      <point x="336" y="613"/>
      <point x="361" y="654"/>
      <point x="377" y="665" type="qcurve" smooth="yes"/>
      <point x="724" y="908" type="line" smooth="yes"/>
      <point x="752" y="928"/>
      <point x="792" y="959"/>
      <point x="806.5" y="971.5" type="qcurve" smooth="yes" name="inserted"/>
      <point x="821" y="984"/>
      <point x="839" y="1006"/>
      <point x="845" y="1017" type="qcurve" smooth="yes"/>
      <point x="852.0" y="1029.5" name="inserted"/>
      <point x="859.0" y="1057.0"/>
      <point x="859" y="1072" type="qcurve" smooth="yes"/>
      <point x="859" y="1111"/>
      <point x="808" y="1161"/>
      <point x="759" y="1161" type="qcurve" smooth="yes"/>
      <point x="726" y="1161"/>
      <point x="655" y="1148"/>
      <point x="623" y="1135" type="qcurve"/>
    </contour>
  </outline>
</glyph>
<glyph name="threesuperior" format="1">
  <advance width="1228"/>
  <unicode hex="00B3"/>
  <outline>
    <contour>
      <point x="590" y="1077" type="line" smooth="yes"/>
      <point x="588" y="1065"/>
      <point x="578" y="1047"/>
      <point x="567.5" y="1041.0" type="qcurve" smooth="yes" name="inserted"/>
      <point x="557" y="1035"/>
      <point x="522" y="1029"/>
      <point x="496" y="1029" type="qcurve" smooth="yes"/>
      <point x="443" y="1029"/>
      <point x="401" y="1053"/>
      <point x="405" y="1077" type="qcurve" smooth="yes"/>
      <point x="433" y="1235" type="line" smooth="yes"/>
      <point x="436" y="1250"/>
      <point x="455" y="1274"/>
      <point x="472" y="1280" type="qcurve" smooth="yes"/>
      <point x="541" y="1306"/>
      <point x="692" y="1334"/>
      <point x="767" y="1334" type="qcurve" smooth="yes"/>
      <point x="840" y="1334"/>
      <point x="950" y="1301"/>
      <point x="987.5" y="1272.0" type="qcurve" smooth="yes" name="inserted"/>
      <point x="1025" y="1243"/>
      <point x="1063" y="1161"/>
      <point x="1063" y="1112" type="qcurve" smooth="yes"/>
      <point x="1063" y="1034"/>
      <point x="983" y="928"/>
      <point x="907" y="897" type="qcurve"/>
      <point x="957" y="874"/>
      <point x="1010" y="793"/>
      <point x="1010" y="739" type="qcurve" smooth="yes"/>
      <point x="1010" y="718"/>
      <point x="1001" y="670"/>
      <point x="992.0" y="646.0" type="qcurve" smooth="yes" name="inserted"/>
      <point x="983" y="622"/>
      <point x="957" y="577"/>
      <point x="939" y="559" type="qcurve" smooth="yes"/>
      <point x="893.5" y="512.0" name="inserted"/>
      <point x="741.0" y="465.0"/>
      <point x="634" y="465" type="qcurve" smooth="yes"/>
      <point x="597" y="465"/>
      <point x="520" y="473"/>
      <point x="483.5" y="480.0" type="qcurve" smooth="yes" name="inserted"/>
      <point x="447" y="487"/>
      <point x="381" y="507"/>
      <point x="355" y="519" type="qcurve" smooth="yes"/>
      <point x="330.5" y="529.5" name="inserted"/>
      <point x="321.5" y="581.5"/>
      <point x="337" y="623" type="qcurve" smooth="yes"/>
      <point x="352" y="664"/>
      <point x="396" y="698"/>
      <point x="413" y="690" type="qcurve" smooth="yes"/>
      <point x="461" y="669"/>
      <point x="579" y="638"/>
      <point x="636" y="638" type="qcurve" smooth="yes"/>
      <point x="687" y="638"/>
      <point x="755" y="658"/>
      <point x="774" y="676" type="qcurve" smooth="yes"/>
      <point x="788" y="689"/>
      <point x="801" y="726"/>
      <point x="801" y="744" type="qcurve" smooth="yes"/>
      <point x="801.0" y="777.5" name="inserted"/>
      <point x="754.5" y="811.0"/>
      <point x="708" y="811" type="qcurve" smooth="yes"/>
      <point x="615" y="811" type="line" smooth="yes"/>
      <point x="592" y="811"/>
      <point x="573" y="849"/>
      <point x="582" y="897" type="qcurve" smooth="yes"/>
      <point x="590" y="945"/>
      <point x="622" y="983"/>
      <point x="645" y="983" type="qcurve" smooth="yes"/>
      <point x="719" y="983" type="line" smooth="yes"/>
      <point x="760.0" y="983.0" name="inserted"/>
      <point x="818.5" y="1003.5"/>
      <point x="836" y="1024" type="qcurve" smooth="yes"/>
      <point x="846" y="1036"/>
      <point x="860" y="1070"/>
      <point x="860" y="1088" type="qcurve" smooth="yes"/>
      <point x="860" y="1122"/>
      <point x="801" y="1161"/>
      <point x="741" y="1161" type="qcurve" smooth="yes"/>
      <point x="708.5" y="1161.0" name="inserted"/>
      <point x="638.5" y="1148.0"/>
      <point x="601" y="1135" type="qcurve"/>
    </contour>
  </outline>
</glyph>
<glyph name="paragraph" format="1">
  <advance width="1228"/>
  <unicode hex="00B6"/>
  <outline>
    <contour>
      <point x="742" y="982" type="line"/>
      <point x="506" y="-352" type="line" smooth="yes"/>
      <point x="500" y="-386"/>
      <point x="440" y="-415"/>
      <point x="383" y="-415" type="qcurve" smooth="yes"/>
      <point x="327" y="-415"/>
      <point x="290" y="-386"/>
      <point x="296" y="-352" type="qcurve" smooth="yes"/>
      <point x="436" y="440" type="line"/>
      <point x="373" y="450"/>
      <point x="275" y="503"/>
      <point x="240.5" y="543.5" type="qcurve" smooth="yes" name="inserted"/>
      <point x="206" y="584"/>
      <point x="170" y="689"/>
      <point x="170" y="751" type="qcurve" smooth="yes"/>
      <point x="170" y="837"/>
      <point x="230" y="995"/>
      <point x="290.5" y="1055.0" type="qcurve" smooth="yes" name="inserted"/>
      <point x="351" y="1115"/>
      <point x="534" y="1187"/>
      <point x="658" y="1187" type="qcurve" smooth="yes"/>
      <point x="1214" y="1187" type="line" smooth="yes"/>
      <point x="1231" y="1187"/>
      <point x="1253" y="1179"/>
      <point x="1259.0" y="1167.5" type="qcurve" smooth="yes" name="inserted"/>
      <point x="1265" y="1156"/>
      <point x="1265" y="1116"/>
      <point x="1259" y="1084" type="qcurve" smooth="yes"/>
      <point x="1253" y="1052"/>
      <point x="1239" y="1012"/>
      <point x="1229.5" y="1001.0" type="qcurve" smooth="yes" name="inserted"/>
      <point x="1220" y="990"/>
      <point x="1195" y="982"/>
      <point x="1178" y="982" type="qcurve" smooth="yes"/>
      <point x="1112" y="982" type="line"/>
      <point x="876" y="-352" type="line" smooth="yes"/>
      <point x="870" y="-386"/>
      <point x="810" y="-415"/>
      <point x="753" y="-415" type="qcurve" smooth="yes"/>
      <point x="697" y="-415"/>
      <point x="660" y="-386"/>
      <point x="666" y="-352" type="qcurve" smooth="yes"/>
      <point x="902" y="982" type="line"/>
    </contour>
  </outline>
</glyph>
<glyph name="ordmasculine" format="1">
  <advance width="1228"/>
  <unicode hex="00BA"/>
  <outline>
    <contour>
      <point x="634" y="465" type="qcurve" smooth="yes"/>
      <point x="555" y="465"/>
      <point x="430" y="513"/>
      <point x="387.0" y="555.0" type="qcurve" smooth="yes" name="inserted"/>
      <point x="344" y="597"/>
      <point x="298" y="712"/>
      <point x="298" y="780" type="qcurve" smooth="yes"/>
      <point x="298" y="856"/>
      <point x="353" y="1009"/>
      <point x="408.5" y="1070.5" type="qcurve" smooth="yes" name="inserted"/>
      <point x="464" y="1132"/>
      <point x="634" y="1209"/>
      <point x="749" y="1209" type="qcurve" smooth="yes"/>
      <point x="828" y="1209"/>
      <point x="952" y="1161"/>
      <point x="995.5" y="1119.0" type="qcurve" smooth="yes" name="inserted"/>
      <point x="1039" y="1077"/>
      <point x="1085" y="961"/>
      <point x="1085" y="894" type="qcurve" smooth="yes"/>
      <point x="1085" y="822"/>
      <point x="1033" y="669"/>
      <point x="978.0" y="607.0" type="qcurve" smooth="yes" name="inserted"/>
      <point x="923" y="545"/>
      <point x="752" y="465"/>
    </contour>
    <contour>
      <point x="726" y="1035" type="qcurve" smooth="yes"/>
      <point x="673" y="1035"/>
      <point x="591" y="994"/>
      <point x="562.0" y="959.5" type="qcurve" smooth="yes" name="inserted"/>
      <point x="533" y="925"/>
      <point x="503" y="837"/>
      <point x="503" y="790" type="qcurve" smooth="yes"/>
      <point x="503" y="720"/>
      <point x="585" y="640"/>
      <point x="657" y="640" type="qcurve" smooth="yes"/>
      <point x="709" y="640"/>
      <point x="792" y="681"/>
      <point x="820.5" y="715.0" type="qcurve" smooth="yes" name="inserted"/>
      <point x="849" y="749"/>
      <point x="879" y="836"/>
      <point x="879" y="883" type="qcurve" smooth="yes"/>
      <point x="879" y="953"/>
      <point x="798" y="1035"/>
    </contour>
  </outline>
</glyph>
<glyph name="guillemotright" format="1">
  <advance width="1228"/>
  <unicode hex="00BB"/>
  <outline>
    <contour>
      <point x="715" y="835" type="line" smooth="yes"/>
      <point x="709" y="849"/>
      <point x="719" y="877"/>
      <point x="731.5" y="889.5" type="qcurve" smooth="yes" name="inserted"/>
      <point x="744" y="902"/>
      <point x="780" y="923"/>
      <point x="801" y="931" type="qcurve" smooth="yes"/>
      <point x="822" y="938"/>
      <point x="865" y="946"/>
      <point x="884.0" y="944.5" type="qcurve" smooth="yes" name="inserted"/>
      <point x="903" y="943"/>
      <point x="931" y="929"/>
      <point x="937" y="915" type="qcurve" smooth="yes"/>
      <point x="1085" y="571" type="line" smooth="yes"/>
      <point x="1090.5" y="558.0" name="inserted"/>
      <point x="1086.0" y="532.5"/>
      <point x="1076" y="520" type="qcurve" smooth="yes"/>
      <point x="806" y="176" type="line" smooth="yes"/>
      <point x="795" y="162"/>
      <point x="764" y="152"/>
      <point x="745.5" y="153.0" type="qcurve" smooth="yes" name="inserted"/>
      <point x="727" y="154"/>
      <point x="689" y="168"/>
      <point x="671" y="179" type="qcurve" smooth="yes"/>
      <point x="653" y="190"/>
      <point x="625" y="219"/>
      <point x="617.0" y="234.5" type="qcurve" smooth="yes" name="inserted"/>
      <point x="609" y="250"/>
      <point x="609" y="282"/>
      <point x="620" y="296" type="qcurve" smooth="yes"/>
      <point x="831" y="565" type="line"/>
    </contour>
    <contour>
      <point x="275" y="835" type="line" smooth="yes"/>
      <point x="269" y="849"/>
      <point x="279" y="877"/>
      <point x="291.5" y="889.5" type="qcurve" smooth="yes" name="inserted"/>
      <point x="304" y="902"/>
      <point x="340" y="923"/>
      <point x="361" y="931" type="qcurve" smooth="yes"/>
      <point x="382" y="938"/>
      <point x="425" y="946"/>
      <point x="444.0" y="944.5" type="qcurve" smooth="yes" name="inserted"/>
      <point x="463" y="943"/>
      <point x="491" y="929"/>
      <point x="497" y="915" type="qcurve" smooth="yes"/>
      <point x="645" y="571" type="line" smooth="yes"/>
      <point x="650.5" y="558.0" name="inserted"/>
      <point x="646.0" y="532.5"/>
      <point x="636" y="520" type="qcurve" smooth="yes"/>
      <point x="366" y="176" type="line" smooth="yes"/>
      <point x="355" y="162"/>
      <point x="324" y="152"/>
      <point x="305.5" y="153.0" type="qcurve" smooth="yes" name="inserted"/>
      <point x="287" y="154"/>
      <point x="249" y="168"/>
      <point x="231" y="179" type="qcurve" smooth="yes"/>
      <point x="213" y="190"/>
      <point x="185" y="219"/>
      <point x="177.0" y="234.5" type="qcurve" smooth="yes" name="inserted"/>
      <point x="169" y="250"/>
      <point x="169" y="282"/>
      <point x="180" y="296" type="qcurve" smooth="yes"/>
      <point x="391" y="565" type="line"/>
    </contour>
  </outline>
</glyph>
<glyph name="Ccedilla" format="1">
  <advance width="1228"/>
  <unicode hex="00C7"/>
  <outline>
    <contour>
      <point x="1016" y="1146" type="line" smooth="yes"/>
      <point x="1023" y="1180"/>
      <point x="1085" y="1209"/>
      <point x="1149" y="1209" type="qcurve" smooth="yes"/>
      <point x="1213" y="1209"/>
      <point x="1252" y="1180"/>
      <point x="1246" y="1146" type="qcurve" smooth="yes"/>
      <point x="1178" y="762" type="line" smooth="yes"/>
      <point x="1172" y="728"/>
      <point x="1107" y="699"/>
      <point x="1035" y="699" type="qcurve" smooth="yes"/>
      <point x="999" y="699"/>
      <point x="955" y="706"/>
      <point x="943.0" y="713.5" type="qcurve" smooth="yes" name="inserted"/>
      <point x="931" y="721"/>
      <point x="925" y="745"/>
      <point x="928" y="762" type="qcurve" smooth="yes"/>
      <point x="937" y="810"/>
      <point x="924" y="891"/>
      <point x="903.0" y="920.5" type="qcurve" smooth="yes" name="inserted"/>
      <point x="882" y="950"/>
      <point x="809" y="982"/>
      <point x="757" y="982" type="qcurve" smooth="yes"/>
      <point x="675" y="982"/>
      <point x="547" y="913"/>
      <point x="500" y="847" type="qcurve" smooth="yes"/>
      <point x="474" y="810"/>
      <point x="435" y="719"/>
      <point x="421.5" y="669.5" type="qcurve" smooth="yes" name="inserted"/>
      <point x="408" y="620"/>
      <point x="394" y="520"/>
      <point x="394" y="475" type="qcurve" smooth="yes"/>
      <point x="394" y="344"/>
      <point x="514" y="205"/>
      <point x="630" y="205" type="qcurve" smooth="yes"/>
      <point x="676" y="205"/>
      <point x="762" y="219"/>
      <point x="805.0" y="231.5" type="qcurve" smooth="yes" name="inserted"/>
      <point x="848" y="244"/>
      <point x="935" y="280"/>
      <point x="982" y="302" type="qcurve" smooth="yes"/>
      <point x="1015" y="317"/>
      <point x="1065" y="283"/>
      <point x="1082" y="225" type="qcurve" smooth="yes"/>
      <point x="1099" y="165"/>
      <point x="1080" y="100"/>
      <point x="1045" y="84" type="qcurve" smooth="yes"/>
      <point x="944" y="38"/>
      <point x="746" y="-15"/>
      <point x="649" y="-20" type="qcurve"/>
      <point x="637" y="-93" type="line"/>
      <point x="686" y="-92"/>
      <point x="760" y="-114"/>
      <point x="784.0" y="-135.0" type="qcurve" smooth="yes" name="inserted"/>
      <point x="808" y="-156"/>
      <point x="832" y="-215"/>
      <point x="832" y="-250" type="qcurve" smooth="yes"/>
      <point x="832" y="-282"/>
      <point x="810" y="-360"/>
      <point x="784" y="-389" type="qcurve" smooth="yes"/>
      <point x="748.5" y="-430.5" name="inserted"/>
      <point x="620.0" y="-472.0"/>
      <point x="527" y="-472" type="qcurve" smooth="yes"/>
      <point x="455" y="-472"/>
      <point x="328" y="-451"/>
      <point x="279" y="-431" type="qcurve" smooth="yes"/>
      <point x="259" y="-423"/>
      <point x="261" y="-376"/>
      <point x="275" y="-346" type="qcurve" smooth="yes"/>
      <point x="288" y="-317"/>
      <point x="324" y="-280"/>
      <point x="344" y="-288" type="qcurve" smooth="yes"/>
      <point x="380" y="-303"/>
      <point x="451" y="-322"/>
      <point x="501" y="-322" type="qcurve" smooth="yes"/>
      <point x="557" y="-322"/>
      <point x="597" y="-283"/>
      <point x="597" y="-258" type="qcurve" smooth="yes"/>
      <point x="597" y="-226"/>
      <point x="529" y="-212"/>
      <point x="479" y="-221" type="qcurve" smooth="yes"/>
      <point x="465" y="-223"/>
      <point x="442" y="-206"/>
      <point x="447" y="-180" type="qcurve" smooth="yes"/>
      <point x="476" y="-9" type="line"/>
      <point x="395" y="9"/>
      <point x="266" y="92"/>
      <point x="221.0" y="153.5" type="qcurve" smooth="yes" name="inserted"/>
      <point x="176" y="215"/>
      <point x="128" y="375"/>
      <point x="128" y="471" type="qcurve" smooth="yes"/>
      <point x="128" y="542"/>
      <point x="153" y="691"/>
      <point x="178.5" y="763.0" type="qcurve" smooth="yes" name="inserted"/>
      <point x="204" y="835"/>
      <point x="278" y="966"/>
      <point x="328" y="1020" type="qcurve" smooth="yes"/>
      <point x="413" y="1113"/>
      <point x="632" y="1209"/>
      <point x="757" y="1209" type="qcurve" smooth="yes"/>
      <point x="851" y="1209"/>
      <point x="974" y="1136"/>
      <point x="1003" y="1078" type="qcurve"/>
    </contour>
  </outline>
</glyph>
<glyph name="divide" format="1">
  <advance width="1228"/>
  <unicode hex="00F7"/>
  <outline>
    <contour>
      <point x="1047" y="695" type="line" smooth="yes"/>
      <point x="1064" y="695"/>
      <point x="1086" y="686"/>
      <point x="1091.5" y="674.0" type="qcurve" smooth="yes" name="inserted"/>
      <point x="1097" y="662"/>
      <point x="1096" y="618"/>
      <point x="1090" y="582" type="qcurve" smooth="yes"/>
      <point x="1084" y="546"/>
      <point x="1069" y="502"/>
      <point x="1059.0" y="490.0" type="qcurve" smooth="yes" name="inserted"/>
      <point x="1049" y="478"/>
      <point x="1024" y="470"/>
      <point x="1007" y="470" type="qcurve" smooth="yes"/>
      <point x="245" y="470" type="line" smooth="yes"/>
      <point x="228" y="470"/>
      <point x="206" y="478"/>
      <point x="200.5" y="490.0" type="qcurve" smooth="yes" name="inserted"/>
      <point x="195" y="502"/>
      <point x="196" y="546"/>
      <point x="202" y="582" type="qcurve" smooth="yes"/>
      <point x="208" y="618"/>
      <point x="223" y="662"/>
      <point x="233.0" y="674.0" type="qcurve" smooth="yes" name="inserted"/>
      <point x="243" y="686"/>
      <point x="268" y="695"/>
      <point x="285" y="695" type="qcurve" smooth="yes"/>
    </contour>
    <contour>
      <point x="565" y="79" type="qcurve" smooth="yes"/>
      <point x="537" y="79"/>
      <point x="490" y="99"/>
      <point x="473.0" y="116.5" type="qcurve" smooth="yes" name="inserted"/>
      <point x="456" y="134"/>
      <point x="437" y="180"/>
      <point x="437" y="206" type="qcurve" smooth="yes"/>
      <point x="437" y="241"/>
      <point x="464" y="301"/>
      <point x="487.0" y="322.5" type="qcurve" smooth="yes" name="inserted"/>
      <point x="510" y="344"/>
      <point x="570" y="369"/>
      <point x="602" y="369" type="qcurve" smooth="yes"/>
      <point x="630" y="369"/>
      <point x="676" y="349"/>
      <point x="693.0" y="331.5" type="qcurve" smooth="yes" name="inserted"/>
      <point x="710" y="314"/>
      <point x="729" y="268"/>
      <point x="729" y="242" type="qcurve" smooth="yes"/>
      <point x="729" y="207"/>
      <point x="702" y="147"/>
      <point x="679.5" y="125.5" type="qcurve" smooth="yes" name="inserted"/>
      <point x="657" y="104"/>
      <point x="597" y="79"/>
    </contour>
    <contour>
      <point x="691" y="796" type="qcurve" smooth="yes"/>
      <point x="663" y="796"/>
      <point x="616" y="816"/>
      <point x="599.0" y="833.5" type="qcurve" smooth="yes" name="inserted"/>
      <point x="582" y="851"/>
      <point x="563" y="897"/>
      <point x="563" y="923" type="qcurve" smooth="yes"/>
      <point x="563" y="958"/>
      <point x="590" y="1018"/>
      <point x="613.0" y="1039.5" type="qcurve" smooth="yes" name="inserted"/>
      <point x="636" y="1061"/>
      <point x="696" y="1086"/>
      <point x="728" y="1086" type="qcurve" smooth="yes"/>
      <point x="756" y="1086"/>
      <point x="802" y="1066"/>
      <point x="819.0" y="1048.5" type="qcurve" smooth="yes" name="inserted"/>
      <point x="836" y="1031"/>
      <point x="855" y="985"/>
      <point x="855" y="959" type="qcurve" smooth="yes"/>
      <point x="855" y="924"/>
      <point x="828" y="864"/>
      <point x="805.5" y="842.5" type="qcurve" smooth="yes" name="inserted"/>
      <point x="783" y="821"/>
      <point x="723" y="796"/>
    </contour>
  </outline>
</glyph>
<glyph name="oslash" format="1">
  <advance width="1228"/>
  <unicode hex="00F8"/>
  <outline>
    <contour>
      <point x="550" y="-22" type="qcurve" smooth="yes"/>
      <point x="469" y="-22"/>
      <point x="337" y="15"/>
      <point x="284" y="50" type="qcurve"/>
      <point x="228" y="1" type="line" smooth="yes"/>
      <point x="200" y="-24"/>
      <point x="154" y="-19"/>
      <point x="120" y="20" type="qcurve" smooth="yes"/>
      <point x="86" y="59"/>
      <point x="89" y="106"/>
      <point x="116" y="130" type="qcurve" smooth="yes"/>
      <point x="167" y="174" type="line"/>
      <point x="140.0" y="220.5" name="inserted"/>
      <point x="113.0" y="327.5"/>
      <point x="113" y="388" type="qcurve" smooth="yes"/>
      <point x="113" y="453"/>
      <point x="144" y="587"/>
      <point x="176.0" y="649.0" type="qcurve" smooth="yes" name="inserted"/>
      <point x="208" y="711"/>
      <point x="305" y="819"/>
      <point x="370.0" y="859.5" type="qcurve" smooth="yes" name="inserted"/>
      <point x="435" y="900"/>
      <point x="600" y="946"/>
      <point x="700" y="946" type="qcurve" smooth="yes"/>
      <point x="780" y="946"/>
      <point x="912" y="908"/>
      <point x="965" y="873" type="qcurve"/>
      <point x="1022" y="923" type="line" smooth="yes"/>
      <point x="1050" y="948"/>
      <point x="1096" y="943"/>
      <point x="1130" y="904" type="qcurve" smooth="yes"/>
      <point x="1164" y="865"/>
      <point x="1161" y="818"/>
      <point x="1134" y="794" type="qcurve" smooth="yes"/>
      <point x="1082" y="748" type="line"/>
      <point x="1108" y="702"/>
      <point x="1136" y="596"/>
      <point x="1136" y="536" type="qcurve" smooth="yes"/>
      <point x="1136" y="473"/>
      <point x="1106" y="342"/>
      <point x="1075.0" y="280.0" type="qcurve" smooth="yes" name="inserted"/>
      <point x="1044" y="218"/>
      <point x="949" y="108"/>
      <point x="884.0" y="67.0" type="qcurve" smooth="yes" name="inserted"/>
      <point x="819" y="26"/>
      <point x="652" y="-22"/>
    </contour>
    <contour>
      <point x="670" y="719" type="qcurve" smooth="yes"/>
      <point x="601" y="719"/>
      <point x="494" y="665"/>
      <point x="456.5" y="620.5" type="qcurve" smooth="yes" name="inserted"/>
      <point x="419" y="576"/>
      <point x="380" y="462"/>
      <point x="380" y="401" type="qcurve" smooth="yes"/>
      <point x="380" y="391"/>
      <point x="380" y="372"/>
      <point x="382" y="363" type="qcurve"/>
      <point x="767" y="700" type="line"/>
      <point x="745.0" y="709.5" name="inserted"/>
      <point x="696.5" y="719.0"/>
    </contour>
    <contour>
      <point x="869" y="522" type="qcurve" smooth="yes"/>
      <point x="869.0" y="532.0" name="inserted"/>
      <point x="867.5" y="551.0"/>
      <point x="866" y="560" type="qcurve"/>
      <point x="482" y="224" type="line"/>
      <point x="502.5" y="214.5" name="inserted"/>
      <point x="551.5" y="205.0"/>
      <point x="580" y="205" type="qcurve" smooth="yes"/>
      <point x="648" y="205"/>
      <point x="756" y="258"/>
      <point x="793.0" y="302.5" type="qcurve" smooth="yes" name="inserted"/>
      <point x="830" y="347"/>
      <point x="869" y="461"/>
    </contour>
  </outline>
</glyph>
<glyph name="dcroat" format="1">
  <advance width="1228"/>
  <unicode hex="0111"/>
  <outline>
    <contour>
      <point x="599" y="916" type="qcurve" smooth="yes"/>
      <point x="678" y="916"/>
      <point x="810" y="851"/>
      <point x="851" y="796" type="qcurve"/>
      <point x="884" y="982" type="line"/>
      <point x="676" y="982" type="line" smooth="yes"/>
      <point x="659" y="982"/>
      <point x="637" y="990"/>
      <point x="631.0" y="1001.0" type="qcurve" smooth="yes" name="inserted"/>
      <point x="625" y="1012"/>
      <point x="625" y="1052"/>
      <point x="631" y="1084" type="qcurve" smooth="yes"/>
      <point x="637" y="1116"/>
      <point x="651" y="1156"/>
      <point x="660.5" y="1167.5" type="qcurve" smooth="yes" name="inserted"/>
      <point x="670" y="1179"/>
      <point x="695" y="1187"/>
      <point x="712" y="1187" type="qcurve" smooth="yes"/>
      <point x="920" y="1187" type="line"/>
      <point x="931" y="1249" type="line" smooth="yes"/>
      <point x="937" y="1283"/>
      <point x="971" y="1312"/>
      <point x="1005" y="1312" type="qcurve" smooth="yes"/>
      <point x="1129" y="1312" type="line" smooth="yes"/>
      <point x="1163" y="1312"/>
      <point x="1187" y="1283"/>
      <point x="1181" y="1249" type="qcurve" smooth="yes"/>
      <point x="1170" y="1187" type="line"/>
      <point x="1274" y="1187" type="line" smooth="yes"/>
      <point x="1291" y="1187"/>
      <point x="1313" y="1179"/>
      <point x="1319.0" y="1167.5" type="qcurve" smooth="yes" name="inserted"/>
      <point x="1325" y="1156"/>
      <point x="1325" y="1116"/>
      <point x="1319" y="1084" type="qcurve" smooth="yes"/>
      <point x="1313" y="1052"/>
      <point x="1299" y="1012"/>
      <point x="1289.5" y="1001.0" type="qcurve" smooth="yes" name="inserted"/>
      <point x="1280" y="990"/>
      <point x="1255" y="982"/>
      <point x="1238" y="982" type="qcurve" smooth="yes"/>
      <point x="1134" y="982" type="line"/>
      <point x="997" y="205" type="line"/>
      <point x="1084" y="205" type="line" smooth="yes"/>
      <point x="1101" y="205"/>
      <point x="1123" y="197"/>
      <point x="1129.0" y="186.0" type="qcurve" smooth="yes" name="inserted"/>
      <point x="1135" y="175"/>
      <point x="1135" y="135"/>
      <point x="1129" y="103" type="qcurve" smooth="yes"/>
      <point x="1123" y="71"/>
      <point x="1109" y="31"/>
      <point x="1099.5" y="19.5" type="qcurve" smooth="yes" name="inserted"/>
      <point x="1090" y="8"/>
      <point x="1065" y="0"/>
      <point x="1048" y="0" type="qcurve" smooth="yes"/>
      <point x="814" y="0" type="line" smooth="yes"/>
      <point x="780" y="0"/>
      <point x="756" y="29"/>
      <point x="762" y="63" type="qcurve" smooth="yes"/>
      <point x="773" y="127" type="line"/>
      <point x="711" y="57"/>
      <point x="551" y="-22"/>
      <point x="454" y="-22" type="qcurve" smooth="yes"/>
      <point x="368" y="-22"/>
      <point x="232" y="37"/>
      <point x="185.5" y="88.5" type="qcurve" smooth="yes" name="inserted"/>
      <point x="139" y="140"/>
      <point x="90" y="282"/>
      <point x="90" y="365" type="qcurve" smooth="yes"/>
      <point x="90" y="429"/>
      <point x="118" y="561"/>
      <point x="146.0" y="622.0" type="qcurve" smooth="yes" name="inserted"/>
      <point x="174" y="683"/>
      <point x="258" y="790"/>
      <point x="315.0" y="830.0" type="qcurve" smooth="yes" name="inserted"/>
      <point x="372" y="870"/>
      <point x="513" y="916"/>
    </contour>
    <contour>
      <point x="524" y="205" type="qcurve" smooth="yes"/>
      <point x="593" y="205"/>
      <point x="697" y="258"/>
      <point x="731.5" y="300.5" type="qcurve" smooth="yes" name="inserted"/>
      <point x="766" y="343"/>
      <point x="801" y="450"/>
      <point x="801" y="504" type="qcurve" smooth="yes"/>
      <point x="801" y="550"/>
      <point x="772" y="620"/>
      <point x="746.0" y="643.0" type="qcurve" smooth="yes" name="inserted"/>
      <point x="720" y="666"/>
      <point x="650" y="689"/>
      <point x="609" y="689" type="qcurve" smooth="yes"/>
      <point x="544" y="689"/>
      <point x="449" y="632"/>
      <point x="418.0" y="587.5" type="qcurve" smooth="yes" name="inserted"/>
      <point x="387" y="543"/>
      <point x="357" y="434"/>
      <point x="357" y="382" type="qcurve" smooth="yes"/>
      <point x="357" y="295"/>
      <point x="446" y="205"/>
    </contour>
  </outline>
</glyph>
<glyph name="iogonek" format="1">
  <advance width="1228"/>
  <unicode hex="012F"/>
  <outline>
    <contour>
      <point x="306" y="719" type="line" smooth="yes"/>
      <point x="289" y="719"/>
      <point x="267" y="727"/>
      <point x="261.0" y="738.0" type="qcurve" smooth="yes" name="inserted"/>
      <point x="255" y="749"/>
      <point x="255" y="789"/>
      <point x="261" y="821" type="qcurve" smooth="yes"/>
      <point x="267" y="853"/>
      <point x="281" y="893"/>
      <point x="290.5" y="904.5" type="qcurve" smooth="yes" name="inserted"/>
      <point x="300" y="916"/>
      <point x="325" y="924"/>
      <point x="342" y="924" type="qcurve" smooth="yes"/>
      <point x="722" y="924" type="line" smooth="yes"/>
      <point x="756" y="924"/>
      <point x="780" y="895"/>
      <point x="774" y="861" type="qcurve" smooth="yes"/>
      <point x="686" y="361" type="line" smooth="yes"/>
      <point x="684" y="347"/>
      <point x="681" y="320"/>
      <point x="681" y="308" type="qcurve" smooth="yes"/>
      <point x="681" y="254"/>
      <point x="730" y="205"/>
      <point x="778" y="205" type="qcurve" smooth="yes"/>
      <point x="803" y="205"/>
      <point x="849" y="212"/>
      <point x="873.5" y="219.5" type="qcurve" smooth="yes" name="inserted"/>
      <point x="898" y="227"/>
      <point x="950" y="250"/>
      <point x="981" y="267" type="qcurve" smooth="yes"/>
      <point x="1019" y="287"/>
      <point x="1067" y="253"/>
      <point x="1090" y="204" type="qcurve" smooth="yes"/>
      <point x="1100" y="182"/>
      <point x="1112" y="145"/>
      <point x="1110.5" y="129.0" type="qcurve" smooth="yes" name="inserted"/>
      <point x="1109" y="113"/>
      <point x="1090" y="86"/>
      <point x="1070" y="74" type="qcurve" smooth="yes"/>
      <point x="1004" y="37"/>
      <point x="896" y="-4"/>
      <point x="842" y="-13" type="qcurve"/>
      <point x="802" y="-43"/>
      <point x="735" y="-102"/>
      <point x="710.5" y="-130.0" type="qcurve" smooth="yes" name="inserted"/>
      <point x="686" y="-158"/>
      <point x="659" y="-211"/>
      <point x="659" y="-235" type="qcurve" smooth="yes"/>
      <point x="659" y="-269"/>
      <point x="700" y="-298"/>
      <point x="737" y="-298" type="qcurve" smooth="yes"/>
      <point x="766" y="-298"/>
      <point x="826" y="-290"/>
      <point x="856" y="-285" type="qcurve" smooth="yes"/>
      <point x="877.5" y="-281.0" name="inserted"/>
      <point x="903.5" y="-313.5"/>
      <point x="908" y="-350" type="qcurve" smooth="yes"/>
      <point x="913" y="-388"/>
      <point x="891" y="-429"/>
      <point x="868" y="-436" type="qcurve" smooth="yes"/>
      <point x="818" y="-452"/>
      <point x="691" y="-472"/>
      <point x="631" y="-472" type="qcurve" smooth="yes"/>
      <point x="526" y="-472"/>
      <point x="409" y="-381"/>
      <point x="409" y="-300" type="qcurve" smooth="yes"/>
      <point x="409" y="-254"/>
      <point x="442" y="-173"/>
      <point x="471.0" y="-137.0" type="qcurve" smooth="yes" name="inserted"/>
      <point x="500" y="-101"/>
      <point x="579" y="-37"/>
      <point x="626" y="-9" type="qcurve"/>
      <point x="530" y="17"/>
      <point x="429" y="160"/>
      <point x="429" y="272" type="qcurve" smooth="yes"/>
      <point x="429.0" y="294.5" name="inserted"/>
      <point x="433.5" y="342.5"/>
      <point x="438" y="368" type="qcurve" smooth="yes"/>
      <point x="499" y="719" type="line"/>
    </contour>
    <contour>
      <point x="826" y="1156" type="line" smooth="yes"/>
      <point x="823" y="1139"/>
      <point x="807" y="1115"/>
      <point x="791.5" y="1107.5" type="qcurve" smooth="yes" name="inserted"/>
      <point x="776" y="1100"/>
      <point x="728" y="1093"/>
      <point x="692" y="1093" type="qcurve" smooth="yes"/>
      <point x="621" y="1093"/>
      <point x="570" y="1122"/>
      <point x="576" y="1156" type="qcurve" smooth="yes"/>
      <point x="605" y="1320" type="line" smooth="yes"/>
      <point x="608" y="1337"/>
      <point x="624" y="1361"/>
      <point x="639.0" y="1368.5" type="qcurve" smooth="yes" name="inserted"/>
      <point x="654" y="1376"/>
      <point x="702" y="1383"/>
      <point x="738" y="1383" type="qcurve" smooth="yes"/>
      <point x="809" y="1383"/>
      <point x="861" y="1354"/>
      <point x="855" y="1320" type="qcurve" smooth="yes"/>
    </contour>
  </outline>
</glyph>
<glyph name="Tbar" format="1">
  <advance width="1228"/>
  <unicode hex="0166"/>
  <outline>
    <contour>
      <point x="482" y="360" type="line"/>
      <point x="326" y="360" type="line" smooth="yes"/>
      <point x="309" y="360"/>
      <point x="287" y="368"/>
      <point x="281.0" y="379.0" type="qcurve" smooth="yes" name="inserted"/>
      <point x="275" y="390"/>
      <point x="275" y="430"/>
      <point x="281" y="462" type="qcurve" smooth="yes"/>
      <point x="287" y="494"/>
      <point x="301" y="534"/>
      <point x="310.5" y="545.5" type="qcurve" smooth="yes" name="inserted"/>
      <point x="320" y="557"/>
      <point x="345" y="565"/>
      <point x="362" y="565" type="qcurve" smooth="yes"/>
      <point x="518" y="565" type="line"/>
      <point x="590" y="972" type="line"/>
      <point x="409" y="972" type="line"/>
      <point x="361" y="700" type="line" smooth="yes"/>
      <point x="355" y="666"/>
      <point x="295" y="637"/>
      <point x="238" y="637" type="qcurve" smooth="yes"/>
      <point x="182" y="637"/>
      <point x="145" y="666"/>
      <point x="151" y="700" type="qcurve" smooth="yes"/>
      <point x="225" y="1122" type="line" smooth="yes"/>
      <point x="231" y="1157"/>
      <point x="267" y="1187"/>
      <point x="302" y="1187" type="qcurve" smooth="yes"/>
      <point x="1204" y="1187" type="line" smooth="yes"/>
      <point x="1239" y="1187"/>
      <point x="1263" y="1157"/>
      <point x="1257" y="1122" type="qcurve" smooth="yes"/>
      <point x="1183" y="700" type="line" smooth="yes"/>
      <point x="1177" y="666"/>
      <point x="1117" y="637"/>
      <point x="1060" y="637" type="qcurve" smooth="yes"/>
      <point x="1004" y="637"/>
      <point x="967" y="666"/>
      <point x="973" y="700" type="qcurve" smooth="yes"/>
      <point x="1021" y="972" type="line"/>
      <point x="840" y="972" type="line"/>
      <point x="768" y="565" type="line"/>
      <point x="924" y="565" type="line" smooth="yes"/>
      <point x="941" y="565"/>
      <point x="963" y="557"/>
      <point x="969.0" y="545.5" type="qcurve" smooth="yes" name="inserted"/>
      <point x="975" y="534"/>
      <point x="975" y="494"/>
      <point x="969" y="462" type="qcurve" smooth="yes"/>
      <point x="963" y="430"/>
      <point x="949" y="390"/>
      <point x="939.5" y="379.0" type="qcurve" smooth="yes" name="inserted"/>
      <point x="930" y="368"/>
      <point x="905" y="360"/>
      <point x="888" y="360" type="qcurve" smooth="yes"/>
      <point x="732" y="360" type="line"/>
      <point x="705" y="205" type="line"/>
      <point x="931" y="205" type="line" smooth="yes"/>
      <point x="948" y="205"/>
      <point x="970" y="197"/>
      <point x="975.5" y="185.5" type="qcurve" smooth="yes" name="inserted"/>
      <point x="981" y="174"/>
      <point x="981" y="134"/>
      <point x="975" y="102" type="qcurve" smooth="yes"/>
      <point x="969" y="70"/>
      <point x="956" y="30"/>
      <point x="946.5" y="19.0" type="qcurve" smooth="yes" name="inserted"/>
      <point x="937" y="8"/>
      <point x="912" y="0"/>
      <point x="895" y="0" type="qcurve" smooth="yes"/>
      <point x="213" y="0" type="line" smooth="yes"/>
      <point x="196" y="0"/>
      <point x="173" y="8"/>
      <point x="167.5" y="19.0" type="qcurve" smooth="yes" name="inserted"/>
      <point x="162" y="30"/>
      <point x="161" y="70"/>
      <point x="167" y="102" type="qcurve" smooth="yes"/>
      <point x="173" y="134"/>
      <point x="187" y="174"/>
      <point x="196.5" y="185.5" type="qcurve" smooth="yes" name="inserted"/>
      <point x="206" y="197"/>
      <point x="232" y="205"/>
      <point x="249" y="205" type="qcurve" smooth="yes"/>
      <point x="455" y="205" type="line"/>
    </contour>
  </outline>
</glyph>
<glyph name="tbar" format="1">
  <advance width="1228"/>
  <unicode hex="0167"/>
  <outline>
    <contour>
      <point x="685" y="864" type="line"/>
      <point x="1056" y="864" type="line" smooth="yes"/>
      <point x="1073" y="864"/>
      <point x="1095" y="854"/>
      <point x="1100.5" y="842.0" type="qcurve" smooth="yes" name="inserted"/>
      <point x="1106" y="830"/>
      <point x="1106" y="788"/>
      <point x="1100" y="756" type="qcurve" smooth="yes"/>
      <point x="1094" y="724"/>
      <point x="1080" y="683"/>
      <point x="1070.0" y="671.0" type="qcurve" smooth="yes" name="inserted"/>
      <point x="1060" y="659"/>
      <point x="1035" y="649"/>
      <point x="1018" y="649" type="qcurve" smooth="yes"/>
      <point x="647" y="649" type="line"/>
      <point x="628" y="545" type="line"/>
      <point x="831" y="545" type="line" smooth="yes"/>
      <point x="848" y="545"/>
      <point x="870" y="537"/>
      <point x="875.5" y="525.5" type="qcurve" smooth="yes" name="inserted"/>
      <point x="881" y="514"/>
      <point x="881" y="474"/>
      <point x="875" y="442" type="qcurve" smooth="yes"/>
      <point x="869" y="410"/>
      <point x="855" y="370"/>
      <point x="845.5" y="359.0" type="qcurve" smooth="yes" name="inserted"/>
      <point x="836" y="348"/>
      <point x="811" y="340"/>
      <point x="794" y="340" type="qcurve" smooth="yes"/>
      <point x="594" y="340" type="line"/>
      <point x="591" y="302"/>
      <point x="603" y="250"/>
      <point x="617.0" y="234.5" type="qcurve" smooth="yes" name="inserted"/>
      <point x="631" y="219"/>
      <point x="672" y="205"/>
      <point x="698" y="205" type="qcurve" smooth="yes"/>
      <point x="723" y="205"/>
      <point x="786" y="218"/>
      <point x="820.5" y="229.0" type="qcurve" smooth="yes" name="inserted"/>
      <point x="855" y="240"/>
      <point x="927" y="268"/>
      <point x="962" y="283" type="qcurve" smooth="yes"/>
      <point x="979" y="290"/>
      <point x="1007" y="291"/>
      <point x="1019.5" y="282.5" type="qcurve" smooth="yes" name="inserted"/>
      <point x="1032" y="274"/>
      <point x="1054" y="239"/>
      <point x="1065" y="209" type="qcurve" smooth="yes"/>
      <point x="1085" y="153"/>
      <point x="1067" y="99"/>
      <point x="1031" y="82" type="qcurve" smooth="yes"/>
      <point x="931" y="36"/>
      <point x="743" y="-22"/>
      <point x="656" y="-22" type="qcurve" smooth="yes"/>
      <point x="504" y="-22"/>
      <point x="339" y="130"/>
      <point x="339" y="273" type="qcurve" smooth="yes"/>
      <point x="339" y="289"/>
      <point x="342" y="322"/>
      <point x="344" y="340" type="qcurve"/>
      <point x="232" y="340" type="line" smooth="yes"/>
      <point x="215" y="340"/>
      <point x="193" y="348"/>
      <point x="187.0" y="359.0" type="qcurve" smooth="yes" name="inserted"/>
      <point x="181" y="370"/>
      <point x="181" y="410"/>
      <point x="187" y="442" type="qcurve" smooth="yes"/>
      <point x="193" y="474"/>
      <point x="207" y="514"/>
      <point x="216.5" y="525.5" type="qcurve" smooth="yes" name="inserted"/>
      <point x="226" y="537"/>
      <point x="252" y="545"/>
      <point x="269" y="545" type="qcurve" smooth="yes"/>
      <point x="379" y="545" type="line"/>
      <point x="397" y="649" type="line"/>
      <point x="204" y="649" type="line" smooth="yes"/>
      <point x="187" y="649"/>
      <point x="165" y="659"/>
      <point x="159.5" y="671.0" type="qcurve" smooth="yes" name="inserted"/>
      <point x="154" y="683"/>
      <point x="154" y="724"/>
      <point x="160" y="756" type="qcurve" smooth="yes"/>
      <point x="166" y="788"/>
      <point x="180" y="830"/>
      <point x="189.5" y="842.0" type="qcurve" smooth="yes" name="inserted"/>
      <point x="199" y="854"/>
      <point x="225" y="864"/>
      <point x="242" y="864" type="qcurve" smooth="yes"/>
      <point x="435" y="864" type="line"/>
      <point x="485" y="1146" type="line" smooth="yes"/>
      <point x="491" y="1180"/>
      <point x="556" y="1209"/>
      <point x="628" y="1209" type="qcurve" smooth="yes"/>
      <point x="664" y="1209"/>
      <point x="708" y="1202"/>
      <point x="720.0" y="1194.5" type="qcurve" smooth="yes" name="inserted"/>
      <point x="732" y="1187"/>
      <point x="738" y="1163"/>
      <point x="735" y="1146" type="qcurve" smooth="yes"/>
    </contour>
  </outline>
</glyph>
<glyph name="Uogonek" format="1">
  <advance width="1228"/>
  <unicode hex="0172"/>
  <outline>
    <contour>
      <point x="541" y="-472" type="qcurve" smooth="yes"/>
      <point x="436" y="-472"/>
      <point x="319" y="-381"/>
      <point x="319" y="-300" type="qcurve" smooth="yes"/>
      <point x="319" y="-257"/>
      <point x="349" y="-179"/>
      <point x="375.5" y="-144.5" type="qcurve" smooth="yes" name="inserted"/>
      <point x="402" y="-110"/>
      <point x="475" y="-48"/>
      <point x="518" y="-20" type="qcurve"/>
      <point x="434" y="-15"/>
      <point x="301" y="39"/>
      <point x="254.0" y="85.0" type="qcurve" smooth="yes" name="inserted"/>
      <point x="207" y="131"/>
      <point x="157" y="259"/>
      <point x="157" y="338" type="qcurve" smooth="yes"/>
      <point x="157.0" y="360.5" name="inserted"/>
      <point x="161.5" y="408.0"/>
      <point x="166" y="433" type="qcurve" smooth="yes"/>
      <point x="263" y="982" type="line"/>
      <point x="216" y="982" type="line" smooth="yes"/>
      <point x="199" y="982"/>
      <point x="177" y="990"/>
      <point x="171.0" y="1001.0" type="qcurve" smooth="yes" name="inserted"/>
      <point x="165" y="1012"/>
      <point x="165" y="1052"/>
      <point x="171" y="1084" type="qcurve" smooth="yes"/>
      <point x="177" y="1116"/>
      <point x="191" y="1156"/>
      <point x="200.5" y="1167.5" type="qcurve" smooth="yes" name="inserted"/>
      <point x="210" y="1179"/>
      <point x="235" y="1187"/>
      <point x="252" y="1187" type="qcurve" smooth="yes"/>
      <point x="626" y="1187" type="line" smooth="yes"/>
      <point x="643" y="1187"/>
      <point x="665" y="1179"/>
      <point x="671.0" y="1167.5" type="qcurve" smooth="yes" name="inserted"/>
      <point x="677" y="1156"/>
      <point x="677" y="1116"/>
      <point x="671" y="1084" type="qcurve" smooth="yes"/>
      <point x="665" y="1052"/>
      <point x="651" y="1012"/>
      <point x="641.5" y="1001.0" type="qcurve" smooth="yes" name="inserted"/>
      <point x="632" y="990"/>
      <point x="607" y="982"/>
      <point x="590" y="982" type="qcurve" smooth="yes"/>
      <point x="513" y="982" type="line"/>
      <point x="416" y="433" type="line" smooth="yes"/>
      <point x="413.0" y="415.5" name="inserted"/>
      <point x="410.0" y="384.0"/>
      <point x="410" y="370" type="qcurve" smooth="yes"/>
      <point x="410" y="284"/>
      <point x="503" y="205"/>
      <point x="580" y="205" type="qcurve" smooth="yes"/>
      <point x="625" y="205"/>
      <point x="704" y="231"/>
      <point x="736.0" y="259.0" type="qcurve" smooth="yes" name="inserted"/>
      <point x="768" y="287"/>
      <point x="813" y="373"/>
      <point x="824" y="433" type="qcurve" smooth="yes"/>
      <point x="921" y="982" type="line"/>
      <point x="844" y="982" type="line" smooth="yes"/>
      <point x="827" y="982"/>
      <point x="805" y="990"/>
      <point x="799.0" y="1001.0" type="qcurve" smooth="yes" name="inserted"/>
      <point x="793" y="1012"/>
      <point x="793" y="1052"/>
      <point x="799" y="1084" type="qcurve" smooth="yes"/>
      <point x="805" y="1116"/>
      <point x="819" y="1156"/>
      <point x="828.5" y="1167.5" type="qcurve" smooth="yes" name="inserted"/>
      <point x="838" y="1179"/>
      <point x="863" y="1187"/>
      <point x="880" y="1187" type="qcurve" smooth="yes"/>
      <point x="1254" y="1187" type="line" smooth="yes"/>
      <point x="1271" y="1187"/>
      <point x="1293" y="1179"/>
      <point x="1299.0" y="1167.5" type="qcurve" smooth="yes" name="inserted"/>
      <point x="1305" y="1156"/>
      <point x="1305" y="1116"/>
      <point x="1299" y="1084" type="qcurve" smooth="yes"/>
      <point x="1293" y="1052"/>
      <point x="1279" y="1012"/>
      <point x="1269.5" y="1001.0" type="qcurve" smooth="yes" name="inserted"/>
      <point x="1260" y="990"/>
      <point x="1235" y="982"/>
      <point x="1218" y="982" type="qcurve" smooth="yes"/>
      <point x="1171" y="982" type="line"/>
      <point x="1068" y="403" type="line" smooth="yes"/>
      <point x="1043" y="263"/>
      <point x="912" y="75"/>
      <point x="808" y="27" type="qcurve"/>
      <point x="758" y="-8"/>
      <point x="671" y="-78"/>
      <point x="638.5" y="-111.0" type="qcurve" smooth="yes" name="inserted"/>
      <point x="606" y="-144"/>
      <point x="569" y="-207"/>
      <point x="569" y="-235" type="qcurve" smooth="yes"/>
      <point x="569" y="-269"/>
      <point x="610" y="-298"/>
      <point x="647" y="-298" type="qcurve" smooth="yes"/>
      <point x="676" y="-298"/>
      <point x="736" y="-290"/>
      <point x="766" y="-285" type="qcurve" smooth="yes"/>
      <point x="787.5" y="-281.0" name="inserted"/>
      <point x="813.5" y="-313.5"/>
      <point x="818" y="-350" type="qcurve" smooth="yes"/>
      <point x="823" y="-388"/>
      <point x="801" y="-429"/>
      <point x="778" y="-436" type="qcurve" smooth="yes"/>
      <point x="728" y="-452"/>
      <point x="601" y="-472"/>
    </contour>
  </outline>
</glyph>
<glyph name="breve" format="1">
  <advance width="1228"/>
  <unicode hex="02D8"/>
  <outline>
    <contour>
      <point x="747" y="1041" type="qcurve" smooth="yes"/>
      <point x="584" y="1041"/>
      <point x="405" y="1177"/>
      <point x="385" y="1298" type="qcurve" smooth="yes"/>
      <point x="381" y="1318"/>
      <point x="410" y="1359"/>
      <point x="439" y="1372" type="qcurve" smooth="yes"/>
      <point x="471" y="1386"/>
      <point x="523" y="1385"/>
      <point x="533" y="1365" type="qcurve" smooth="yes"/>
      <point x="561" y="1306"/>
      <point x="667" y="1245"/>
      <point x="763" y="1245" type="qcurve" smooth="yes"/>
      <point x="811" y="1245"/>
      <point x="885" y="1261"/>
      <point x="915.0" y="1276.5" type="qcurve" smooth="yes" name="inserted"/>
      <point x="945" y="1292"/>
      <point x="993" y="1337"/>
      <point x="1015" y="1365" type="qcurve"/>
      <point x="1031" y="1383"/>
      <point x="1081" y="1386"/>
      <point x="1111" y="1374" type="qcurve" smooth="yes"/>
      <point x="1139" y="1363"/>
      <point x="1169" y="1322"/>
      <point x="1159" y="1298" type="qcurve" smooth="yes"/>
      <point x="1136" y="1240"/>
      <point x="1062" y="1145"/>
      <point x="1011.0" y="1111.5" type="qcurve" smooth="yes" name="inserted"/>
      <point x="960" y="1078"/>
      <point x="828" y="1041"/>
    </contour>
  </outline>
</glyph>
<glyph name="hungarumlaut" format="1">
  <advance width="1228"/>
  <unicode hex="02DD"/>
  <outline>
    <contour>
      <point x="571" y="1066" type="line" smooth="yes"/>
      <point x="562.0" y="1059.5" name="inserted"/>
      <point x="537.0" y="1053.0"/>
      <point x="521" y="1053" type="qcurve" smooth="yes"/>
      <point x="486" y="1053"/>
      <point x="439" y="1088"/>
      <point x="439" y="1111" type="qcurve" smooth="yes"/>
      <point x="439.0" y="1119.5" name="inserted"/>
      <point x="445.0" y="1134.0"/>
      <point x="451" y="1140" type="qcurve" smooth="yes"/>
      <point x="649" y="1350" type="line" smooth="yes"/>
      <point x="665" y="1367"/>
      <point x="715" y="1383"/>
      <point x="744" y="1383" type="qcurve" smooth="yes"/>
      <point x="776" y="1383"/>
      <point x="826" y="1366"/>
      <point x="843.0" y="1353.5" type="qcurve" smooth="yes" name="inserted"/>
      <point x="860" y="1341"/>
      <point x="878" y="1313"/>
      <point x="878" y="1301" type="qcurve" smooth="yes"/>
      <point x="878.0" y="1290.5" name="inserted"/>
      <point x="868.5" y="1273.5"/>
      <point x="859" y="1267" type="qcurve" smooth="yes"/>
    </contour>
    <contour>
      <point x="971" y="1066" type="line" smooth="yes"/>
      <point x="962.0" y="1059.5" name="inserted"/>
      <point x="937.0" y="1053.0"/>
      <point x="921" y="1053" type="qcurve" smooth="yes"/>
      <point x="886" y="1053"/>
      <point x="839" y="1088"/>
      <point x="839" y="1111" type="qcurve" smooth="yes"/>
      <point x="839.0" y="1119.5" name="inserted"/>
      <point x="845.0" y="1134.0"/>
      <point x="851" y="1140" type="qcurve" smooth="yes"/>
      <point x="1049" y="1350" type="line" smooth="yes"/>
      <point x="1065" y="1367"/>
      <point x="1115" y="1383"/>
      <point x="1144" y="1383" type="qcurve" smooth="yes"/>
      <point x="1176" y="1383"/>
      <point x="1226" y="1366"/>
      <point x="1243.0" y="1353.5" type="qcurve" smooth="yes" name="inserted"/>
      <point x="1260" y="1341"/>
      <point x="1278" y="1313"/>
      <point x="1278" y="1301" type="qcurve" smooth="yes"/>
      <point x="1278.0" y="1290.5" name="inserted"/>
      <point x="1268.5" y="1273.5"/>
      <point x="1259" y="1267" type="qcurve" smooth="yes"/>
    </contour>
  </outline>
</glyph>
<glyph name="emdash" format="1">
  <advance width="1228"/>
  <unicode hex="2014"/>
  <outline>
    <contour>
      <point x="1247" y="695" type="line" smooth="yes"/>
      <point x="1264" y="695"/>
      <point x="1286" y="686"/>
      <point x="1291.5" y="674.0" type="qcurve" smooth="yes" name="inserted"/>
      <point x="1297" y="662"/>
      <point x="1296" y="618"/>
      <point x="1290" y="582" type="qcurve" smooth="yes"/>
      <point x="1284" y="546"/>
      <point x="1269" y="502"/>
      <point x="1259.0" y="490.0" type="qcurve" smooth="yes" name="inserted"/>
      <point x="1249" y="478"/>
      <point x="1224" y="470"/>
      <point x="1207" y="470" type="qcurve" smooth="yes"/>
      <point x="45" y="470" type="line" smooth="yes"/>
      <point x="28" y="470"/>
      <point x="6" y="478"/>
      <point x="0.5" y="490.0" type="qcurve" smooth="yes" name="inserted"/>
      <point x="-5" y="502"/>
      <point x="-4" y="546"/>
      <point x="2" y="582" type="qcurve" smooth="yes"/>
      <point x="8" y="618"/>
      <point x="23" y="662"/>
      <point x="33.0" y="674.0" type="qcurve" smooth="yes" name="inserted"/>
      <point x="43" y="686"/>
      <point x="68" y="695"/>
      <point x="85" y="695" type="qcurve" smooth="yes"/>
    </contour>
  </outline>
</glyph>
<glyph name="quotedblright" format="1">
  <advance width="1228"/>
  <unicode hex="201D"/>
  <outline>
    <contour>
      <point x="408" y="672" type="line" smooth="yes"/>
      <point x="385" y="639"/>
      <point x="333" y="611"/>
      <point x="291" y="611" type="qcurve" smooth="yes"/>
      <point x="241" y="611"/>
      <point x="209" y="650"/>
      <point x="226" y="697" type="qcurve" smooth="yes"/>
      <point x="394" y="1169" type="line" smooth="yes"/>
      <point x="401" y="1189"/>
      <point x="432" y="1209"/>
      <point x="453" y="1209" type="qcurve" smooth="yes"/>
      <point x="712" y="1209" type="line" smooth="yes"/>
      <point x="737" y="1209"/>
      <point x="746" y="1172"/>
      <point x="729" y="1146" type="qcurve" smooth="yes"/>
    </contour>
    <contour>
      <point x="888" y="672" type="line" smooth="yes"/>
      <point x="865" y="639"/>
      <point x="813" y="611"/>
      <point x="771" y="611" type="qcurve" smooth="yes"/>
      <point x="721" y="611"/>
      <point x="689" y="650"/>
      <point x="706" y="697" type="qcurve" smooth="yes"/>
      <point x="874" y="1169" type="line" smooth="yes"/>
      <point x="881" y="1189"/>
      <point x="912" y="1209"/>
      <point x="933" y="1209" type="qcurve" smooth="yes"/>
      <point x="1192" y="1209" type="line" smooth="yes"/>
      <point x="1217" y="1209"/>
      <point x="1226" y="1172"/>
      <point x="1209" y="1146" type="qcurve" smooth="yes"/>
    </contour>
  </outline>
</glyph>
<glyph name="dagger" format="1">
  <advance width="1228"/>
  <unicode hex="2020"/>
  <outline>
    <contour>
      <point x="366" y="699" type="line" smooth="yes"/>
      <point x="349" y="699"/>
      <point x="327" y="707"/>
      <point x="321.5" y="719.0" type="qcurve" smooth="yes" name="inserted"/>
      <point x="316" y="731"/>
      <point x="317" y="775"/>
      <point x="323" y="811" type="qcurve" smooth="yes"/>
      <point x="329" y="847"/>
      <point x="343" y="891"/>
      <point x="353.0" y="903.0" type="qcurve" smooth="yes" name="inserted"/>
      <point x="363" y="915"/>
      <point x="388" y="924"/>
      <point x="405" y="924" type="qcurve" smooth="yes"/>
      <point x="593" y="924" type="line"/>
      <point x="633" y="1146" type="line" smooth="yes"/>
      <point x="636" y="1163"/>
      <point x="649" y="1187"/>
      <point x="662.5" y="1194.5" type="qcurve" smooth="yes" name="inserted"/>
      <point x="676" y="1202"/>
      <point x="721" y="1209"/>
      <point x="757" y="1209" type="qcurve" smooth="yes"/>
      <point x="793" y="1209"/>
      <point x="835" y="1202"/>
      <point x="846.0" y="1194.5" type="qcurve" smooth="yes" name="inserted"/>
      <point x="857" y="1187"/>
      <point x="861" y="1163"/>
      <point x="858" y="1146" type="qcurve" smooth="yes"/>
      <point x="818" y="924" type="line"/>
      <point x="1007" y="924" type="line" smooth="yes"/>
      <point x="1024" y="924"/>
      <point x="1046" y="915"/>
      <point x="1051.5" y="903.0" type="qcurve" smooth="yes" name="inserted"/>
      <point x="1057" y="891"/>
      <point x="1057" y="847"/>
      <point x="1051" y="811" type="qcurve" smooth="yes"/>
      <point x="1045" y="775"/>
      <point x="1030" y="731"/>
      <point x="1020.0" y="719.0" type="qcurve" smooth="yes" name="inserted"/>
      <point x="1010" y="707"/>
      <point x="985" y="699"/>
      <point x="968" y="699" type="qcurve" smooth="yes"/>
      <point x="779" y="699" type="line"/>
      <point x="710" y="311" type="line" smooth="yes"/>
      <point x="707" y="294"/>
      <point x="695" y="270"/>
      <point x="681.5" y="262.5" type="qcurve" smooth="yes" name="inserted"/>
      <point x="668" y="255"/>
      <point x="623" y="248"/>
      <point x="587" y="248" type="qcurve" smooth="yes"/>
      <point x="551" y="248"/>
      <point x="508" y="255"/>
      <point x="497.0" y="262.5" type="qcurve" smooth="yes" name="inserted"/>
      <point x="486" y="270"/>
      <point x="482" y="294"/>
      <point x="485" y="311" type="qcurve" smooth="yes"/>
      <point x="554" y="699" type="line"/>
    </contour>
  </outline>
</glyph>
<glyph name="ellipsis.alt1" format="1">
  <advance width="1228"/>
  <outline>
    <contour>
      <point x="-350" y="-22" type="qcurve" smooth="yes"/>
      <point x="-390" y="-22"/>
      <point x="-457" y="7"/>
      <point x="-481.5" y="32.0" type="qcurve" smooth="yes" name="inserted"/>
      <point x="-506" y="57"/>
      <point x="-533" y="123"/>
      <point x="-533" y="161" type="qcurve" smooth="yes"/>
      <point x="-533" y="211"/>
      <point x="-494" y="296"/>
      <point x="-461.0" y="327.5" type="qcurve" smooth="yes" name="inserted"/>
      <point x="-428" y="359"/>
      <point x="-343" y="394"/>
      <point x="-297" y="394" type="qcurve" smooth="yes"/>
      <point x="-257" y="394"/>
      <point x="-190" y="365"/>
      <point x="-166.0" y="340.5" type="qcurve" smooth="yes" name="inserted"/>
      <point x="-142" y="316"/>
      <point x="-115" y="249"/>
      <point x="-115" y="212" type="qcurve" smooth="yes"/>
      <point x="-115" y="162"/>
      <point x="-154" y="77"/>
      <point x="-186.0" y="45.5" type="qcurve" smooth="yes" name="inserted"/>
      <point x="-218" y="14"/>
      <point x="-304" y="-22"/>
    </contour>
    <contour>
      <point x="550" y="-22" type="qcurve" smooth="yes"/>
      <point x="510" y="-22"/>
      <point x="443" y="7"/>
      <point x="418.5" y="32.0" type="qcurve" smooth="yes" name="inserted"/>
      <point x="394" y="57"/>
      <point x="367" y="123"/>
      <point x="367" y="161" type="qcurve" smooth="yes"/>
      <point x="367" y="211"/>
      <point x="406" y="296"/>
      <point x="439.0" y="327.5" type="qcurve" smooth="yes" name="inserted"/>
      <point x="472" y="359"/>
      <point x="557" y="394"/>
      <point x="603" y="394" type="qcurve" smooth="yes"/>
      <point x="643" y="394"/>
      <point x="710" y="365"/>
      <point x="734.0" y="340.5" type="qcurve" smooth="yes" name="inserted"/>
      <point x="758" y="316"/>
      <point x="785" y="249"/>
      <point x="785" y="212" type="qcurve" smooth="yes"/>
      <point x="785" y="162"/>
      <point x="746" y="77"/>
      <point x="714.0" y="45.5" type="qcurve" smooth="yes" name="inserted"/>
      <point x="682" y="14"/>
      <point x="596" y="-22"/>
    </contour>
    <contour>
      <point x="1450" y="-22" type="qcurve" smooth="yes"/>
      <point x="1410" y="-22"/>
      <point x="1343" y="7"/>
      <point x="1318.5" y="32.0" type="qcurve" smooth="yes" name="inserted"/>
      <point x="1294" y="57"/>
      <point x="1267" y="123"/>
      <point x="1267" y="161" type="qcurve" smooth="yes"/>
      <point x="1267" y="211"/>
      <point x="1306" y="296"/>
      <point x="1339.0" y="327.5" type="qcurve" smooth="yes" name="inserted"/>
      <point x="1372" y="359"/>
      <point x="1457" y="394"/>
      <point x="1503" y="394" type="qcurve" smooth="yes"/>
      <point x="1543" y="394"/>
      <point x="1610" y="365"/>
      <point x="1634.0" y="340.5" type="qcurve" smooth="yes" name="inserted"/>
      <point x="1658" y="316"/>
      <point x="1685" y="249"/>
      <point x="1685" y="212" type="qcurve" smooth="yes"/>
      <point x="1685" y="162"/>
      <point x="1646" y="77"/>
      <point x="1614.0" y="45.5" type="qcurve" smooth="yes" name="inserted"/>
      <point x="1582" y="14"/>
      <point x="1496" y="-22"/>
    </contour>
  </outline>
</glyph>
<glyph name="ellipsis.alt5" format="1">
  <advance width="3684"/>
  <outline>
    <contour>
      <point x="878" y="-22" type="qcurve" smooth="yes"/>
      <point x="838" y="-22"/>
      <point x="771" y="7"/>
      <point x="746.5" y="32.0" type="qcurve" smooth="yes" name="inserted"/>
      <point x="722" y="57"/>
      <point x="695" y="123"/>
      <point x="695" y="161" type="qcurve" smooth="yes"/>
      <point x="695" y="211"/>
      <point x="734" y="296"/>
      <point x="767.0" y="327.5" type="qcurve" smooth="yes" name="inserted"/>
      <point x="800" y="359"/>
      <point x="885" y="394"/>
      <point x="931" y="394" type="qcurve" smooth="yes"/>
      <point x="971" y="394"/>
      <point x="1038" y="365"/>
      <point x="1062.0" y="340.5" type="qcurve" smooth="yes" name="inserted"/>
      <point x="1086" y="316"/>
      <point x="1113" y="249"/>
      <point x="1113" y="212" type="qcurve" smooth="yes"/>
      <point x="1113" y="162"/>
      <point x="1074" y="77"/>
      <point x="1042.0" y="45.5" type="qcurve" smooth="yes" name="inserted"/>
      <point x="1010" y="14"/>
      <point x="924" y="-22"/>
    </contour>
    <contour>
      <point x="1928" y="-22" type="qcurve" smooth="yes"/>
      <point x="1888" y="-22"/>
      <point x="1821" y="7"/>
      <point x="1796.5" y="32.0" type="qcurve" smooth="yes" name="inserted"/>
      <point x="1772" y="57"/>
      <point x="1745" y="123"/>
      <point x="1745" y="161" type="qcurve" smooth="yes"/>
      <point x="1745" y="211"/>
      <point x="1784" y="296"/>
      <point x="1817.0" y="327.5" type="qcurve" smooth="yes" name="inserted"/>
      <point x="1850" y="359"/>
      <point x="1935" y="394"/>
      <point x="1981" y="394" type="qcurve" smooth="yes"/>
      <point x="2021" y="394"/>
      <point x="2088" y="365"/>
      <point x="2112.0" y="340.5" type="qcurve" smooth="yes" name="inserted"/>
      <point x="2136" y="316"/>
      <point x="2163" y="249"/>
      <point x="2163" y="212" type="qcurve" smooth="yes"/>
      <point x="2163" y="162"/>
      <point x="2124" y="77"/>
      <point x="2092.0" y="45.5" type="qcurve" smooth="yes" name="inserted"/>
      <point x="2060" y="14"/>
      <point x="1974" y="-22"/>
    </contour>
    <contour>
      <point x="2978" y="-22" type="qcurve" smooth="yes"/>
      <point x="2938" y="-22"/>
      <point x="2871" y="7"/>
      <point x="2846.5" y="32.0" type="qcurve" smooth="yes" name="inserted"/>
      <point x="2822" y="57"/>
      <point x="2795" y="123"/>
      <point x="2795" y="161" type="qcurve" smooth="yes"/>
      <point x="2795" y="211"/>
      <point x="2834" y="296"/>
      <point x="2867.0" y="327.5" type="qcurve" smooth="yes" name="inserted"/>
      <point x="2900" y="359"/>
      <point x="2985" y="394"/>
      <point x="3031" y="394" type="qcurve" smooth="yes"/>
      <point x="3071" y="394"/>
      <point x="3138" y="365"/>
      <point x="3162.0" y="340.5" type="qcurve" smooth="yes" name="inserted"/>
      <point x="3186" y="316"/>
      <point x="3213" y="249"/>
      <point x="3213" y="212" type="qcurve" smooth="yes"/>
      <point x="3213" y="162"/>
      <point x="3174" y="77"/>
      <point x="3142.0" y="45.5" type="qcurve" smooth="yes" name="inserted"/>
      <point x="3110" y="14"/>
      <point x="3024" y="-22"/>
    </contour>
  </outline>
</glyph>
<glyph name="hyphen.alt" format="1">
  <advance width="1228"/>
  <outline>
    <contour>
      <point x="961" y="719" type="line" smooth="yes"/>
      <point x="978" y="719"/>
      <point x="1000" y="707"/>
      <point x="1005.0" y="692.0" type="qcurve" smooth="yes" name="inserted"/>
      <point x="1010" y="677"/>
      <point x="1008" y="625"/>
      <point x="1001" y="586" type="qcurve" smooth="yes"/>
      <point x="994" y="547"/>
      <point x="978" y="496"/>
      <point x="968.0" y="481.0" type="qcurve" smooth="yes" name="inserted"/>
      <point x="958" y="466"/>
      <point x="932" y="454"/>
      <point x="915" y="454" type="qcurve" smooth="yes"/>
      <point x="333" y="454" type="line" smooth="yes"/>
      <point x="316" y="454"/>
      <point x="294" y="466"/>
      <point x="289.0" y="481.0" type="qcurve" smooth="yes" name="inserted"/>
      <point x="284" y="496"/>
      <point x="286" y="547"/>
      <point x="293" y="586" type="qcurve" smooth="yes"/>
      <point x="300" y="625"/>
      <point x="316" y="677"/>
      <point x="326.0" y="692.0" type="qcurve" smooth="yes" name="inserted"/>
      <point x="336" y="707"/>
      <point x="362" y="719"/>
      <point x="379" y="719" type="qcurve" smooth="yes"/>
    </contour>
  </outline>
</glyph>
<glyph name="period.alt" format="1">
  <advance width="1228"/>
  <outline>
    <contour>
      <point x="850" y="-22" type="qcurve" smooth="yes"/>
      <point x="810" y="-22"/>
      <point x="743" y="7"/>
      <point x="718.5" y="32.0" type="qcurve" smooth="yes" name="inserted"/>
      <point x="694" y="57"/>
      <point x="667" y="123"/>
      <point x="667" y="161" type="qcurve" smooth="yes"/>
      <point x="667" y="211"/>
      <point x="706" y="296"/>
      <point x="739.0" y="327.5" type="qcurve" smooth="yes" name="inserted"/>
      <point x="772" y="359"/>
      <point x="857" y="394"/>
      <point x="903" y="394" type="qcurve" smooth="yes"/>
      <point x="943" y="394"/>
      <point x="1010" y="365"/>
      <point x="1034.0" y="340.5" type="qcurve" smooth="yes" name="inserted"/>
      <point x="1058" y="316"/>
      <point x="1085" y="249"/>
      <point x="1085" y="212" type="qcurve" smooth="yes"/>
      <point x="1085" y="162"/>
      <point x="1046" y="77"/>
      <point x="1014.0" y="45.5" type="qcurve" smooth="yes" name="inserted"/>
      <point x="982" y="14"/>
      <point x="896" y="-22"/>
    </contour>
  </outline>
</glyph>
